<?xml version="1.0" encoding="utf-8"?>
<!-- Generator: Adobe Illustrator 18.0.0, SVG Export Plug-In . SVG Version: 6.00 Build 0)  -->
<!DOCTYPE svg PUBLIC "-//W3C//DTD SVG 1.1//EN" "http://www.w3.org/Graphics/SVG/1.1/DTD/svg11.dtd">
<svg version="1.1" xmlns="http://www.w3.org/2000/svg" xmlns:xlink="http://www.w3.org/1999/xlink" x="0px" y="0px"
	 viewBox="0 0 2272 1872" enable-background="new 0 0 2272 1872" xml:space="preserve">
<g id="Background">
	<rect x="-5.5" y="-9.7" fill="#91BFC8" width="2288" height="1889.6"/>
</g>
<g id="Object">
	<g>
		<path fill="#7FA7B0" d="M911.9,689.9c3.2,46.4,3.1,97.3,14.8,142.5c6.6,25.6,40.5,24.7,60.7,25.5c93.1,3.6,185.7,5.5,278.8,1.9
			c20.2-0.8,80.3,1.8,83.8-32.4c4.8-46.4,3.4-95.9,6.6-142.3c3.6-50.9-0.5-101.3,0.7-152.4c1.2-55.7-6.8-105.2-8.5-160.9
			c-0.9-30.1,3.2-72.5-13.2-99.9c-16.9-28.1-42.8-32.9-73.7-35.4c-87.5-7-182.6-8.9-270.1-1.9c-30.9,2.5-56.8,7.2-73.7,35.4
			c-16.5,27.4-12.3,69.8-13.2,99.9c-1.7,55.7-1.6,111.4-0.4,167.1C905.6,587.9,908.3,638.9,911.9,689.9z"/>
		<path fill="#7FA7B0" d="M97.2,852c101.4-1.7,202.8-3.3,304.3-4.6c105.2-1.4,213.4,4.7,318.1-5.3c4.2-0.4,6.1-3.8,5.6-6.9
			c1.2-1,2-2.5,2.2-4.5c7.4-83.8,1.7-170.5,1.8-254.6c0.1-47.5,2.4-95,2.6-142.5c0.1-23.8-0.4-47.6-2-71.3c-0.4-5.6-0.1-12-1.4-17.5
			c-0.7-3.1-3.1-5.4-4.8-8.1c-3.8-6-7.6-12.1-11.3-18.1c-0.3-0.5-0.6-1-0.9-1.5c-23.8-0.5-49.5-2.4-73.6-0.1c2-2.1,4-4.1,6-6.2
			c4.2-4.3,28.4-22.3,24.3-32c-7.1-16.7-20.4-27.4-34.9-38c-2.5-1.9-6-0.8-8.2,1.1c-27.5,24-54.3,48.7-79.7,74.7
			c-0.1,0-0.2-0.1-0.3-0.1c-72.2-2.2-144.2,2.4-216.4,1.9c-73.6-0.4-147.2-2.1-220.8-0.6c-4.4,0.1-8.8,0.2-13.2,0.3
			c-5.7,0.1-7.3,6-5,9.7c-5.1,83.1-0.8,167.8-0.7,251.1c0,88.3-5.1,177.9,0.3,266c0.1,2.3,1.2,3.9,2.7,4.9
			C93,851.1,94.8,852.1,97.2,852z"/>
		<path fill="#7FA7B0" d="M725.7,321.4c-0.5-3.6-3.7-4.9-6.1-3.8c-0.6-0.1-1.1-0.4-1.8-0.4c-2,0-4.1-0.1-6.2-0.1l16.5,24.8
			C727.4,335.1,726.6,328.2,725.7,321.4z"/>
		<path fill="#7FA7B0" d="M709,313.2c-0.1-0.1-0.2-0.2-0.3-0.3l2.7,4.2c0.1,0,0.2,0,0.3,0L709,313.2z"/>
		<path fill="#7FA7B0" d="M2147,379.4c-0.8-23.8-0.9-86.8-26.7-99.8c-34.8-17.6-88.2-8-126.2-8.9c-56.1-1.2-112.3-2.4-168.4-3.7
			c-56.1-1.2-112.3-2.5-168.4-3.8c-37.8-0.8-81.7-8.9-117.4,6.7c-28.6,12.5-23.5,61.6-24.8,85.1c-5.4,97.3-5.4,197.3,0,294.6
			c1.3,23.5-3.8,72.6,24.8,85.1c35.7,15.6,79.6,7.5,117.4,6.7c37.5-0.8,75-1.7,112.5-2.5c-0.3,7,0.5,13.9,2.3,20.5
			c-21.7,1-64.9,11.2-53.9,41.7c13.5,37.4,75.8,27.6,106.6,28.4c31.1,0.8,119.1,9.8,139.1-24.3c21.2-36.2-37.6-46.1-64.3-46.1
			c1.4-7.4,1-15.7,1.1-23.2c31.1-0.7,62.3-1.4,93.4-2c38-0.8,91.4,8.7,126.2-8.9c25.8-13,25.9-76,26.7-99.8
			C2149.6,544,2149.6,460.9,2147,379.4z"/>
		<path fill="#7FA7B0" d="M1354.3,1083.4c-1.7-1.9-3.7-2.2-5.4-1.7c-2.4-1.5-5.6-1.7-8.2,1c-163.9,167.5-330.3,333.4-490.4,504.6
			c-0.4,0.3-0.7,0.7-1,1.1c-6.8,7.3-13.6,14.5-20.4,21.8c-0.9,1-1.3,2-1.5,3c-1.7,1.9-2.2,4.8-0.1,7.4
			c30.8,38,67.8,71.9,103.3,105.5c3.9,3.7,9,1.3,10.7-2.5c0.2-0.2,0.4-0.2,0.6-0.4c174-172.3,341.3-351.7,513.4-526
			c0.9-0.9,1.4-1.9,1.7-2.8c2.9-1.8,4.4-5.2,1.7-8.7C1428.6,1146.9,1387.5,1119.1,1354.3,1083.4z"/>
		<path fill="#7FA7B0" d="M734.1,1225.1c-0.3-3.3-2.5-5-4.9-5.3c0,0,0,0,0,0c-46.3-35.6-102-43.7-159.1-43.5
			c-46.5,0.2-105.6-0.9-144.4,29c-96.4-63.6-232.4-52.2-327.5,7.2c-2.9-0.3-5.9,1.5-6,5.5c-3.2,126.5,4.9,253.6,4.7,380.2
			c0,9.4,13.5,9.9,15.3,1.7c5.6-2.3,11.3-4.5,16.9-6.6c-0.5,15-0.9,29.9-1.4,44.9c-0.2,6.5,6.7,9,11.8,6.8
			c87.7-37.7,182.5-50.1,276.9-36.9c1,1.4,2.6,2.4,4.7,2.2c92.9-11.2,195.7-25.6,280.8,22.8c4.8,2.7,12.1-0.7,11.7-6.7
			c-0.7-9.9-1.5-19.7-2.5-29.5c3.7,1.5,7.3,3,11,4.6c6.8,3,12.9-4,10.7-9.3c0.1-0.4,0.3-0.7,0.3-1.2
			C735.6,1470.4,743.3,1345.7,734.1,1225.1z"/>
		<path fill="#7FA7B0" d="M2073.9,1111.6c-28.5-25.3-78-21.6-113.5-23.1c-50.3-2.1-102.4,1.2-153.4,2.2c-52.5,1-104.9-4.4-157.3-2.2
			c-35.5,1.5-85-2.3-113.5,23.1c-24.6,21.9-12.1,85.4-12.1,113.3c0,58.3-0.3,116.7-0.5,175c-0.2,53.5-0.3,107.1,0.6,160.6
			c0.7,42.6-4.3,91.9,13.5,131.8c15.4,34.7,65.3,27.9,95,27.5c114.9-1.4,229.7-1.4,344.6,0c29.7,0.4,79.6,7.2,95-27.5
			c17.7-39.9,12.8-89.2,13.5-131.8c0.9-53.5,0.8-107.1,0.6-160.6c-0.2-58.3-0.5-116.7-0.5-175
			C2086,1197,2098.5,1133.5,2073.9,1111.6z M1606,1281.9c14.5,0.8,30-1.1,44.4-1.5c0.5,8.7,0.9,17.4,1.4,26.1
			c0.7,13.8,2.4,20.4,17.7,20.5c13,0.1,17-10.6,17.1-21.6c0-8.7-0.2-17.4-0.5-26.1c2.4,0.1,4.8,0.2,7.2,0.1c2.2,0,4.4,0,6.5-0.5
			c0.5,9.2,1,18.3,1.5,27.5c0.7,13.8,2.4,20.4,17.7,20.5c13,0.1,17-10.6,17.1-21.6c0-9-0.2-18.1-0.6-27.1c3.6,0.3,7.3,0.2,10.8-0.4
			c0.5,9.5,1,19,1.5,28.6c0.7,13.8,2.4,20.4,17.7,20.5c13,0.1,17-10.6,17.1-21.6c0-9.6-0.3-19.2-0.6-28.8
			c71-3.8,142.1,1.2,213.1-3.3c-0.5,43.3-0.4,86.6-0.1,129.9c-6.1-1.9-12.8-1.5-19.1-1.6c-5.3-0.1-11.1-0.6-16.5-0.1
			c-0.6-11.8-1.1-23.5-1.5-35.3c-0.1-3.9-3.2-5.9-6.3-5.9c-0.1,0-0.1-0.1-0.2-0.1c-8.8-1.4-15.6-1.3-24.3,0.8
			c-2.8,0.7-4.8,3.5-4.8,6.3c0.2,11.8,0.7,23.6,1.2,35.4c-17.4-1-35.1-1.3-52.5,0.6c-0.6-12.4-1.2-24.7-1.5-37.1
			c-0.1-3.9-3.2-5.9-6.3-5.9c-0.1,0-0.1-0.1-0.2-0.1c-8.8-1.4-15.6-1.3-24.3,0.8c-2.8,0.7-4.8,3.5-4.8,6.3
			c0.2,12.3,0.7,24.6,1.3,36.9c-12.4-0.3-25,0.4-37.4,0.8c-6,0.2-15.2-1-22.7,0c-0.6-13-1.3-25.9-1.6-38.8c-0.1-3.9-3.2-5.9-6.3-5.9
			c-0.1,0-0.1-0.1-0.2-0.1c-8.8-1.4-15.6-1.3-24.3,0.8c-2.8,0.7-4.8,3.5-4.8,6.3c0.3,13,0.8,26,1.4,39c-44.3-3.5-88.8,2.3-133.2-0.2
			C1606.1,1364.7,1606.2,1323.3,1606,1281.9z M1739.7,1418.3c0.6,10.8,1.1,21.7,1.7,32.5c0.7,13.8,2.4,20.4,17.7,20.5
			c13,0.1,17-10.6,17.1-21.6c0-10.9-0.3-21.8-0.8-32.8c8.6-1.1,19.8,0.6,27.6,0.5c10.8-0.1,21.8-0.1,32.6-0.9
			c0.6,11.4,1.2,22.8,1.8,34.2c0.7,13.8,2.4,20.4,17.7,20.5c13,0.1,17-10.6,17.1-21.6c0-11.5-0.4-22.9-0.9-34.4
			c17.5,0.4,35.1-0.5,52.5-0.8c0.6,12.1,1.3,24.2,1.9,36.3c0.7,13.8,2.4,20.4,17.7,20.5c13,0.1,17-10.6,17.1-21.6
			c0-11.8-0.4-23.6-0.9-35.4c4.3,0.5,8.6,0.4,12.8,0.6c7.3,0.3,15.2,1.3,22.4-0.6c0.3,42.5,0.8,85,1.2,127.5
			c-46.4-2.2-94.5-0.5-141,2c-0.6-13.6-1.4-27.2-1.7-40.8c-0.1-3.9-3.2-5.9-6.3-5.9c-0.1,0-0.1-0.1-0.2-0.1
			c-8.8-1.4-15.6-1.3-24.3,0.8c-2.8,0.7-4.8,3.5-4.8,6.3c0.3,14.4,0.9,28.8,1.6,43.1c-19.4-1.7-41.4-1.7-60.7,1.4
			c-0.7-15.2-1.5-30.4-1.9-45.6c-0.1-3.9-3.2-5.9-6.3-5.9c-0.1,0-0.1-0.1-0.2-0.1c-8.8-1.4-15.6-1.3-24.3,0.8
			c-2.8,0.7-4.8,3.5-4.8,6.3c0.3,14.5,0.9,29,1.6,43.4c-4.9,0-9.8,0.3-14.7,0.4c-3.7,0.1-7.5,0.1-11.2,0.5
			c-0.7-15.2-1.5-30.3-1.9-45.4c-0.1-3.9-3.2-5.9-6.3-5.9c-0.1,0-0.1-0.1-0.2-0.1c-8.8-1.4-15.6-1.3-24.3,0.8
			c-2.8,0.7-4.8,3.5-4.8,6.3c0.3,14.8,0.9,29.6,1.6,44.4c-17.6-1.9-37.6-0.8-55.1,1.8c-0.2-44.2-0.1-88.5,0-132.7
			C1650.3,1422.2,1695.2,1417.1,1739.7,1418.3z M1636.1,1561.4c8.4-0.3,17.1-0.4,25.5-1.7c0.5,9.3,1,18.6,1.5,27.9
			c0.7,13.8,2.4,20.4,17.7,20.5c13,0.1,17-10.6,17.1-21.6c0-8.6-0.2-17.1-0.5-25.7c3.5,0.2,7.1-0.1,10.7-0.2
			c5.1-0.2,10.3-0.4,15.4-1.2c0.5,9.4,1,18.7,1.5,28.1c0.7,13.8,2.4,20.4,17.7,20.5c13,0.1,17-10.6,17.1-21.6
			c0-8.5-0.2-17.1-0.5-25.7c19.7,1.8,41.3,0.6,60.8-1.9c0.5,9.5,1,19.1,1.5,28.6c0.7,13.8,2.4,20.4,17.7,20.5
			c13,0.1,17-10.6,17.1-21.6c0-10-0.3-20.1-0.7-30.1c46.4,0.5,94.4,0.1,140.6-4.2c0.3,27.7,0.6,55.4,0.7,83.1
			c-129.3-3.8-261.3-7.3-390.3,2.8c-0.4-25.4-0.6-50.8-0.8-76.3C1615.9,1562.4,1626.1,1561.7,1636.1,1561.4z M1995.3,1261.6
			c-71.2,2.8-142.5-1.1-213.7,2c-0.6-13.9-1.4-27.9-1.8-41.8c-0.1-3.9-3.2-5.9-6.3-5.9c-0.1,0-0.1-0.1-0.2-0.1
			c-8.8-1.4-15.6-1.3-24.3,0.8c-2.8,0.7-4.8,3.5-4.8,6.3c0.3,13.7,0.8,27.4,1.5,41.1c-3.4-0.6-7.5-0.4-10.7-0.1
			c-0.6-14-1.4-28.1-1.8-42.1c-0.1-3.9-3.2-5.9-6.3-5.9c-0.1,0-0.1-0.1-0.2-0.1c-8.8-1.4-15.6-1.3-24.3,0.8
			c-2.8,0.7-4.8,3.5-4.8,6.3c0.3,13.9,0.8,27.8,1.5,41.8c-1.3-0.1-2.7-0.1-4.3,0.1c-3.1,0.3-6.2,0.5-9.2,0.7
			c-0.7-14.6-1.4-29.2-1.8-43.7c-0.1-3.9-3.2-5.9-6.3-5.9c-0.1,0-0.1-0.1-0.2-0.1c-8.8-1.4-15.6-1.3-24.3,0.8
			c-2.8,0.7-4.8,3.5-4.8,6.3c0.3,14.4,0.9,28.8,1.6,43.3c-13.9-0.8-29.8-1.5-43.8,1.2c-0.2-30.2-0.5-60.3-1.1-90.5
			c130.3,5.1,262.1,1,392.5-0.7C1996.2,1204.7,1995.7,1233.2,1995.3,1261.6z"/>
	</g>
	<g>
		<path fill="#F37B78" d="M968.5,746.4c1.5,14.4-1,49,20.3,52.8c10.4,1.8,20.9,2.7,31.5,2.8l54.3,2.3c24.7,1,49.4,2,74.1,3.1
			c24.7-1.1,71.6-0.2,96.2-1.2l54.3-2.3c10.6-0.1,25.8-2.4,36.3-4.2c21.3-3.8,30.7-36,32.2-50.4c9.4-87.9,2.5-170.9,4.7-244
			c2.3-77.2-3.6-148.1-7.9-225.2c-1.1-19.6-5.2-38.5-18.2-53.8c-13.6-15.9-46.1-14.9-64.4-16.6c-34.4-3.1-90.8-4.5-125.2-3.6
			c-0.6,0.3-1.2,0.4-2,0.4c-2-0.1-4-0.1-6-0.2c-2,0.1-4,0.1-6,0.2c-0.7,0-1.4-0.1-2-0.4c-34.4-1-68.6-1.4-103,1.7
			c-18.3,1.6-50.8,0.6-64.4,16.6c-13.1,15.3-17.1,34.2-18.2,53.8c-4.3,77.2-4.5,154.8-2.2,232C955.3,589.2,960.1,668,968.5,746.4z
			 M1202.8,751.7c-17.5,4.8-39.5,2.1-57.3,1.1c-16.3-0.9-21.7-0.9-26.8-16.9c-5.5-17-3.8-39.6,18.9-39.2c13.7,0.2,50.6-5.7,68.4,0.3
			c3.3,1.1,6,2.7,7.7,4.7c3.1,3.8,4.4,8.8,4.9,13.7C1220.3,730.6,1218.3,747.5,1202.8,751.7z M1202.8,664.2
			c-17.5,4.8-39.5,2.1-57.3,1.1c-16.3-0.9-21.7-0.9-26.8-16.9c-5.5-17-3.8-39.6,18.9-39.2c13.7,0.2,50.6-5.7,68.4,0.3
			c3.3,1.1,6,2.7,7.7,4.7c3.1,3.8,4.4,8.8,4.9,13.7C1220.3,643.2,1218.3,660,1202.8,664.2z M1202.8,576.8
			c-17.5,4.8-39.5,2.1-57.3,1.1c-16.3-0.9-21.7-0.9-26.8-16.9c-5.5-17-3.8-39.6,18.9-39.2c13.7,0.2,50.6-5.7,68.4,0.3
			c3.3,1.1,6,2.7,7.7,4.7c3.1,3.8,4.4,8.8,4.9,13.7C1220.3,555.7,1218.3,572.6,1202.8,576.8z M1202.8,489.4
			c-17.5,4.8-39.5,2.1-57.3,1.1c-16.3-0.9-21.7-0.9-26.8-16.9c-5.5-17-3.8-39.6,18.9-39.2c13.7,0.2,50.6-5.7,68.4,0.3
			c3.3,1.1,6,2.7,7.7,4.7c3.1,3.8,4.4,8.8,4.9,13.7C1220.3,468.3,1218.3,485.1,1202.8,489.4z M1343.7,681.2
			c-0.8,19,2.6,45.4-10.5,61c-8.8,10.4-42.4,6.6-53.6,6.3c-16.4-0.3-35.2,2.1-39.2-16.9c-5.6-26.8-3.3-57.7-4.9-85.1
			c-0.6-11-6.9-38.4,10.6-42.1c14.8-3.2,30-4.3,45.2-4c0.2-0.1,0.4-0.2,0.7-0.2c10-1.7,42.6-6.7,48,5.9
			C1349.3,627.6,1344.7,658.3,1343.7,681.2z M1261.3,521.8c13.7,0.2,50.6-5.7,68.4,0.3c3.3,1.1,6,2.7,7.7,4.7
			c3.1,3.8,4.4,8.8,4.9,13.7c1.6,15.2-0.4,32-15.8,36.2c-17.5,4.8-39.5,2.1-57.3,1.1c-16.3-0.9-21.7-0.9-26.8-16.9
			C1236.9,544,1238.6,521.4,1261.3,521.8z M1337.4,439.4c3.1,3.8,4.4,8.8,4.9,13.7c1.6,15.2-0.4,32-15.8,36.2
			c-17.5,4.8-39.5,2.1-57.3,1.1c-16.3-0.9-21.7-0.9-26.8-16.9c-5.5-17-3.8-39.6,18.9-39.2c13.7,0.2,50.6-5.7,68.4,0.3
			C1333.1,435.8,1335.7,437.3,1337.4,439.4z M1003.3,275.8c0-3.1,1.9-5,4.2-5.6c1.1-0.9,2.4-1.5,4.2-1.5c47-0.2,94-0.4,141-0.7
			c39.6-0.2,103.1-4.1,142.4,1.5c27.1,3.9,22.7,14.7,24.8,41.2c1.1,13.1,12.2,51.1-4.1,60.7c-8.6,5-18.8,3.5-28.2,3.4
			c-22.5-0.1-66.8,0-89.4,0c-40.6,0.1-81.2,0.3-121.8,0.4c-20.3,0-57.1,9.7-70.5-9.6c-5.6-8.1-2.2-27.6-2.3-36.6
			C1003.5,311.3,1003.2,293.6,1003.3,275.8z M1014.9,434.3c13.7,0.2,50.6-5.7,68.4,0.3c3.3,1.1,6,2.7,7.7,4.7
			c3.1,3.8,4.4,8.8,4.9,13.7c1.6,15.2-0.4,32-15.8,36.2c-17.5,4.8-39.5,2.1-57.3,1.1c-16.3-0.9-21.7-0.9-26.8-16.9
			C990.5,456.6,992.2,434,1014.9,434.3z M1014.9,521.8c13.7,0.2,50.6-5.7,68.4,0.3c3.3,1.1,6,2.7,7.7,4.7c3.1,3.8,4.4,8.8,4.9,13.7
			c1.6,15.2-0.4,32-15.8,36.2c-17.5,4.8-39.5,2.1-57.3,1.1c-16.3-0.9-21.7-0.9-26.8-16.9C990.5,544,992.2,521.4,1014.9,521.8z
			 M1014.9,609.2c13.7,0.2,50.6-5.7,68.4,0.3c3.3,1.1,6,2.7,7.7,4.7c3.1,3.8,4.4,8.8,4.9,13.7c1.6,15.2-0.4,32-15.8,36.2
			c-17.5,4.8-39.5,2.1-57.3,1.1c-16.3-0.9-21.7-0.9-26.8-16.9C990.5,631.5,992.2,608.9,1014.9,609.2z M1014.9,696.7
			c13.7,0.2,50.6-5.7,68.4,0.3c3.3,1.1,6,2.7,7.7,4.7c3.1,3.8,4.4,8.8,4.9,13.7c1.6,15.2-0.4,32-15.8,36.2
			c-17.5,4.8-39.5,2.1-57.3,1.1c-16.3-0.9-21.7-0.9-26.8-16.9C990.5,718.9,992.2,696.3,1014.9,696.7z"/>
		<path fill="#F99F1C" d="M1009.8,735.4c0.5,2.7,2.9,4.7,5.6,4.9c11.8,0.9,23.7,1.6,35.5,1.5c6.4-0.1,12.9-0.1,19.3-0.8
			c3.6-0.4,10.7,0.6,13.2-2.7c1.7-2.2,1.5-8.7,1.8-11.3c0.7-7,0.9-18-8.8-17.8c-4.5,0.1-9.1,0.1-13.6,0.2c-6.8,0-13.6,0.1-20.5,0.1
			c-9.8,0-19.5,0.1-29.3,0.3c-3.8,0.1-6.8,3.5-6.2,7.3C1007.7,723.2,1008.6,729.3,1009.8,735.4z"/>
		<path fill="#F99F1C" d="M1199.1,446.8c-4.5,0.1-9.1,0.1-13.6,0.2c-6.8,0-13.6,0.1-20.5,0.1c-9.8,0-19.5,0.1-29.3,0.3
			c-3.8,0.1-6.8,3.5-6.2,7.3c0.9,6.2,1.8,12.3,3,18.4c0.5,2.7,2.9,4.7,5.6,4.9c11.8,0.9,23.7,1.6,35.5,1.5
			c6.4-0.1,12.9-0.1,19.3-0.8c3.6-0.4,10.7,0.6,13.2-2.7c1.7-2.2,1.5-8.7,1.8-11.3C1208.6,457.6,1208.8,446.7,1199.1,446.8z"/>
		<path fill="#F99F1C" d="M1199.1,534.3c-4.5,0.1-9.1,0.1-13.6,0.2c-6.8,0-13.6,0.1-20.5,0.1c-9.8,0-19.5,0.1-29.3,0.3
			c-3.8,0.1-6.8,3.5-6.2,7.3c0.9,6.2,1.8,12.3,3,18.4c0.5,2.7,2.9,4.7,5.6,4.9c11.8,0.9,23.7,1.6,35.5,1.5
			c6.4-0.1,12.9-0.1,19.3-0.8c3.6-0.4,10.7,0.6,13.2-2.7c1.7-2.2,1.5-8.7,1.8-11.3C1208.6,545.1,1208.8,534.1,1199.1,534.3z"/>
		<path fill="#F99F1C" d="M1321.4,612.6c-16.3-0.6-32.6-1.2-48.8,0.5c-26.3,2.8-25.9,10.3-24.8,33.4c1.3,27.8-8.3,90.3,31.8,90.8
			c20.3,0.2,48.7,2.4,50.5-24.8c0.9-13.9,1.8-27.8,2-41.7c0.2-17.1,1.3-35.2-0.8-52.2C1330.9,615.5,1326.8,613.6,1321.4,612.6z"/>
		<path fill="#F99F1C" d="M1256.2,560.5c0.5,2.7,2.9,4.7,5.6,4.9c11.8,0.9,23.7,1.6,35.5,1.5c6.4-0.1,12.9-0.1,19.3-0.8
			c3.6-0.4,10.7,0.6,13.2-2.7c1.7-2.2,1.5-8.7,1.8-11.3c0.7-7,0.9-18-8.8-17.8c-4.5,0.1-9.1,0.1-13.6,0.2c-6.8,0-13.6,0.1-20.5,0.1
			c-9.8,0-19.5,0.1-29.3,0.3c-3.8,0.1-6.8,3.5-6.2,7.3C1254,548.3,1255,554.4,1256.2,560.5z"/>
		<path fill="#F99F1C" d="M1199.1,621.7c-4.5,0.1-9.1,0.1-13.6,0.2c-6.8,0-13.6,0.1-20.5,0.1c-9.8,0-19.5,0.1-29.3,0.3
			c-3.8,0.1-6.8,3.5-6.2,7.3c0.9,6.2,1.8,12.3,3,18.4c0.5,2.7,2.9,4.7,5.6,4.9c11.8,0.9,23.7,1.6,35.5,1.5
			c6.4-0.1,12.9-0.1,19.3-0.8c3.6-0.4,10.7,0.6,13.2-2.7c1.7-2.2,1.5-8.7,1.8-11.3C1208.6,632.5,1208.8,621.6,1199.1,621.7z"/>
		<path fill="#F99F1C" d="M1199.1,709.1c-4.5,0.1-9.1,0.1-13.6,0.2c-6.8,0-13.6,0.1-20.5,0.1c-9.8,0-19.5,0.1-29.3,0.3
			c-3.8,0.1-6.8,3.5-6.2,7.3c0.9,6.2,1.8,12.3,3,18.4c0.5,2.7,2.9,4.7,5.6,4.9c11.8,0.9,23.7,1.6,35.5,1.5
			c6.4-0.1,12.9-0.1,19.3-0.8c3.6-0.4,10.7,0.6,13.2-2.7c1.7-2.2,1.5-8.7,1.8-11.3C1208.6,720,1208.8,709,1199.1,709.1z"/>
		<path fill="#F99F1C" d="M1259.4,447.4c-3.8,0.1-6.8,3.5-6.2,7.3c0.9,6.2,1.8,12.3,3,18.4c0.5,2.7,2.9,4.7,5.6,4.9
			c11.8,0.9,23.7,1.6,35.5,1.5c6.4-0.1,12.9-0.1,19.3-0.8c3.6-0.4,10.7,0.6,13.2-2.7c1.7-2.2,1.5-8.7,1.8-11.3
			c0.7-7,0.9-18-8.8-17.8c-4.5,0.1-9.1,0.1-13.6,0.2c-6.8,0-13.6,0.1-20.5,0.1C1278.9,447.2,1269.2,447.2,1259.4,447.4z"/>
		<path fill="#F99F1C" d="M1009.8,560.5c0.5,2.7,2.9,4.7,5.6,4.9c11.8,0.9,23.7,1.6,35.5,1.5c6.4-0.1,12.9-0.1,19.3-0.8
			c3.6-0.4,10.7,0.6,13.2-2.7c1.7-2.2,1.5-8.7,1.8-11.3c0.7-7,0.9-18-8.8-17.8c-4.5,0.1-9.1,0.1-13.6,0.2c-6.8,0-13.6,0.1-20.5,0.1
			c-9.8,0-19.5,0.1-29.3,0.3c-3.8,0.1-6.8,3.5-6.2,7.3C1007.7,548.3,1008.6,554.4,1009.8,560.5z"/>
		<path fill="#F99F1C" d="M1009.8,648c0.5,2.7,2.9,4.7,5.6,4.9c11.8,0.9,23.7,1.6,35.5,1.5c6.4-0.1,12.9-0.1,19.3-0.8
			c3.6-0.4,10.7,0.6,13.2-2.7c1.7-2.2,1.5-8.7,1.8-11.3c0.7-7,0.9-18-8.8-17.8c-4.5,0.1-9.1,0.1-13.6,0.2c-6.8,0-13.6,0.1-20.5,0.1
			c-9.8,0-19.5,0.1-29.3,0.3c-3.8,0.1-6.8,3.5-6.2,7.3C1007.7,635.7,1008.6,641.9,1009.8,648z"/>
		<path fill="#F99F1C" d="M1036,362.3c27.1-0.2,54.1-0.3,81.2-0.4c53.7-0.2,130.5,3,184.1-1c14-1,5.1-42.8,4.6-50.1
			c-1.8-23.4,4.5-27.3-24.5-28.5c-26.2-1.1-74.1-0.5-100.3-0.4c-55.1,0.3-110.2,0.6-165.3,1c0.6,15.4,1.2,30.7,1.4,46.1
			C1017.4,345.7,1010.2,362.5,1036,362.3z"/>
		<path fill="#F99F1C" d="M1009.8,473.1c0.5,2.7,2.9,4.7,5.6,4.9c11.8,0.9,23.7,1.6,35.5,1.5c6.4-0.1,12.9-0.1,19.3-0.8
			c3.6-0.4,10.7,0.6,13.2-2.7c1.7-2.2,1.5-8.7,1.8-11.3c0.7-7,0.9-18-8.8-17.8c-4.5,0.1-9.1,0.1-13.6,0.2c-6.8,0-13.6,0.1-20.5,0.1
			c-9.8,0-19.5,0.1-29.3,0.3c-3.8,0.1-6.8,3.5-6.2,7.3C1007.7,460.8,1008.6,467,1009.8,473.1z"/>
		<path fill="#81514F" d="M944.9,649.4c3.2,46.4,3.1,97.3,14.8,142.5c6.6,25.6,40.5,24.7,60.7,25.5c93.1,3.6,185.7,5.5,278.8,1.9
			c20.2-0.8,80.3,1.8,83.8-32.4c4.8-46.4,3.4-95.9,6.6-142.3c3.6-50.9-0.5-101.3,0.7-152.4c1.2-55.7-6.8-105.2-8.5-160.9
			c-0.9-30.1,3.2-72.5-13.2-99.9c-16.9-28.1-42.8-32.9-73.7-35.4c-87.5-7-182.6-8.9-270.1-1.9c-30.9,2.5-56.8,7.2-73.7,35.4
			c-16.5,27.4-12.3,69.8-13.2,99.9c-1.7,55.7-1.6,111.4-0.4,167.1C938.6,547.4,941.3,598.4,944.9,649.4z M955.1,278.3
			c1.1-19.6,5.2-38.5,18.2-53.8c13.6-15.9,46.1-14.9,64.4-16.6c34.4-3.1,68.6-2.6,103-1.7c0.6,0.3,1.2,0.4,2,0.4c2-0.1,4-0.1,6-0.2
			c2,0.1,4,0.1,6,0.2c0.7,0,1.4-0.1,2-0.4c34.4-1,90.8,0.5,125.2,3.6c18.3,1.6,50.8,0.6,64.4,16.6c13.1,15.3,17.1,34.2,18.2,53.8
			c4.3,77.2,10.2,148,7.9,225.2c-2.2,73.1,4.7,156.1-4.7,244c-1.5,14.4-10.9,46.5-32.2,50.4c-10.4,1.8-25.7,4.1-36.3,4.2l-54.3,2.3
			c-24.7,1-71.6,0.1-96.2,1.2c-24.7-1.1-49.4-2.1-74.1-3.1l-54.3-2.3c-10.6-0.1-21.1-1-31.5-2.8c-21.3-3.8-18.8-38.4-20.3-52.8
			c-8.4-78.5-13.3-157.3-15.7-236.1C950.5,433.1,950.8,355.4,955.1,278.3z"/>
		<path fill="#81514F" d="M1006.1,365.7c13.4,19.3,50.2,9.7,70.5,9.6c40.6-0.1,81.2-0.3,121.8-0.4c22.5,0,66.8-0.1,89.4,0
			c9.5,0,19.7,1.6,28.2-3.4c16.3-9.5,5.2-47.6,4.1-60.7c-2.2-26.5,2.2-37.4-24.8-41.2c-39.3-5.6-102.8-1.7-142.4-1.5
			c-47,0.2-94,0.5-141,0.7c-1.8,0-3.1,0.7-4.2,1.5c-2.3,0.6-4.2,2.4-4.2,5.6c-0.1,17.7,0.1,35.5,0.5,53.2
			C1003.9,338.1,1000.5,357.5,1006.1,365.7z M1181,282c26.2-0.1,74.1-0.7,100.3,0.4c29,1.2,22.7,5.1,24.5,28.5
			c0.6,7.4,9.4,49.1-4.6,50.1c-53.6,4-130.4,0.8-184.1,1c-27.1,0.1-54.1,0.2-81.2,0.4c-25.8,0.2-18.6-16.6-18.9-33.3
			c-0.3-15.4-0.8-30.7-1.4-46.1C1070.8,282.6,1125.9,282.3,1181,282z"/>
		<path fill="#81514F" d="M1213.8,439.4c-1.7-2.1-4.4-3.6-7.7-4.7c-17.8-6-54.8-0.1-68.4-0.3c-22.7-0.4-24.4,22.3-18.9,39.2
			c5.2,16,10.5,15.9,26.8,16.9c17.8,1,39.8,3.7,57.3-1.1c15.5-4.2,17.5-21.1,15.8-36.2C1218.1,448.2,1216.9,443.2,1213.8,439.4z
			 M1207.9,464.6c-0.3,2.7-0.2,9.2-1.8,11.3c-2.5,3.3-9.6,2.3-13.2,2.7c-6.4,0.7-12.8,0.7-19.3,0.8c-11.8,0.2-23.7-0.6-35.5-1.5
			c-2.8-0.2-5.1-2.2-5.6-4.9c-1.2-6.1-2.1-12.3-3-18.4c-0.5-3.8,2.4-7.2,6.2-7.3c9.8-0.1,19.5-0.2,29.3-0.3c6.8,0,13.6-0.1,20.5-0.1
			c4.5-0.1,9.1-0.1,13.6-0.2C1208.8,446.7,1208.6,457.6,1207.9,464.6z"/>
		<path fill="#81514F" d="M1261.3,434.3c-22.7-0.4-24.4,22.3-18.9,39.2c5.2,16,10.5,15.9,26.8,16.9c17.8,1,39.8,3.7,57.3-1.1
			c15.5-4.2,17.5-21.1,15.8-36.2c-0.5-4.9-1.8-9.9-4.9-13.7c-1.7-2.1-4.4-3.6-7.7-4.7C1311.9,428.6,1275,434.5,1261.3,434.3z
			 M1322.8,446.8c9.7-0.1,9.5,10.8,8.8,17.8c-0.3,2.7-0.2,9.2-1.8,11.3c-2.5,3.3-9.6,2.3-13.2,2.7c-6.4,0.7-12.8,0.7-19.3,0.8
			c-11.8,0.2-23.7-0.6-35.5-1.5c-2.8-0.2-5.1-2.2-5.6-4.9c-1.2-6.1-2.1-12.3-3-18.4c-0.5-3.8,2.4-7.2,6.2-7.3
			c9.8-0.1,19.5-0.2,29.3-0.3c6.8,0,13.6-0.1,20.5-0.1C1313.7,446.9,1318.3,446.9,1322.8,446.8z"/>
		<path fill="#81514F" d="M1022.9,490.4c17.8,1,39.8,3.7,57.3-1.1c15.5-4.2,17.5-21.1,15.8-36.2c-0.5-4.9-1.8-9.9-4.9-13.7
			c-1.7-2.1-4.4-3.6-7.7-4.7c-17.8-6-54.8-0.1-68.4-0.3c-22.7-0.4-24.4,22.3-18.9,39.2C1001.2,489.6,1006.5,489.5,1022.9,490.4z
			 M1013,447.4c9.8-0.1,19.5-0.2,29.3-0.3c6.8,0,13.6-0.1,20.5-0.1c4.5-0.1,9.1-0.1,13.6-0.2c9.7-0.1,9.5,10.8,8.8,17.8
			c-0.3,2.7-0.2,9.2-1.8,11.3c-2.5,3.3-9.6,2.3-13.2,2.7c-6.4,0.7-12.8,0.7-19.3,0.8c-11.8,0.2-23.7-0.6-35.5-1.5
			c-2.8-0.2-5.1-2.2-5.6-4.9c-1.2-6.1-2.1-12.3-3-18.4C1006.2,450.9,1009.2,447.4,1013,447.4z"/>
		<path fill="#81514F" d="M1213.8,526.8c-1.7-2.1-4.4-3.6-7.7-4.7c-17.8-6-54.8-0.1-68.4-0.3c-22.7-0.4-24.4,22.3-18.9,39.2
			c5.2,16,10.5,15.9,26.8,16.9c17.8,1,39.8,3.7,57.3-1.1c15.5-4.2,17.5-21.1,15.8-36.2C1218.1,535.7,1216.9,530.6,1213.8,526.8z
			 M1207.9,552.1c-0.3,2.7-0.2,9.2-1.8,11.3c-2.5,3.3-9.6,2.3-13.2,2.7c-6.4,0.7-12.8,0.7-19.3,0.8c-11.8,0.2-23.7-0.6-35.5-1.5
			c-2.8-0.2-5.1-2.2-5.6-4.9c-1.2-6.1-2.1-12.3-3-18.4c-0.5-3.8,2.4-7.2,6.2-7.3c9.8-0.1,19.5-0.2,29.3-0.3c6.8,0,13.6-0.1,20.5-0.1
			c4.5-0.1,9.1-0.1,13.6-0.2C1208.8,534.1,1208.6,545.1,1207.9,552.1z"/>
		<path fill="#81514F" d="M1269.2,577.9c17.8,1,39.8,3.7,57.3-1.1c15.5-4.2,17.5-21.1,15.8-36.2c-0.5-4.9-1.8-9.9-4.9-13.7
			c-1.7-2.1-4.4-3.6-7.7-4.7c-17.8-6-54.8-0.1-68.4-0.3c-22.7-0.4-24.4,22.3-18.9,39.2C1247.6,577,1252.9,576.9,1269.2,577.9z
			 M1259.4,534.8c9.8-0.1,19.5-0.2,29.3-0.3c6.8,0,13.6-0.1,20.5-0.1c4.5-0.1,9.1-0.1,13.6-0.2c9.7-0.1,9.5,10.8,8.8,17.8
			c-0.3,2.7-0.2,9.2-1.8,11.3c-2.5,3.3-9.6,2.3-13.2,2.7c-6.4,0.7-12.8,0.7-19.3,0.8c-11.8,0.2-23.7-0.6-35.5-1.5
			c-2.8-0.2-5.1-2.2-5.6-4.9c-1.2-6.1-2.1-12.3-3-18.4C1252.6,538.3,1255.5,534.9,1259.4,534.8z"/>
		<path fill="#81514F" d="M1022.9,577.9c17.8,1,39.8,3.7,57.3-1.1c15.5-4.2,17.5-21.1,15.8-36.2c-0.5-4.9-1.8-9.9-4.9-13.7
			c-1.7-2.1-4.4-3.6-7.7-4.7c-17.8-6-54.8-0.1-68.4-0.3c-22.7-0.4-24.4,22.3-18.9,39.2C1001.2,577,1006.5,576.9,1022.9,577.9z
			 M1013,534.8c9.8-0.1,19.5-0.2,29.3-0.3c6.8,0,13.6-0.1,20.5-0.1c4.5-0.1,9.1-0.1,13.6-0.2c9.7-0.1,9.5,10.8,8.8,17.8
			c-0.3,2.7-0.2,9.2-1.8,11.3c-2.5,3.3-9.6,2.3-13.2,2.7c-6.4,0.7-12.8,0.7-19.3,0.8c-11.8,0.2-23.7-0.6-35.5-1.5
			c-2.8-0.2-5.1-2.2-5.6-4.9c-1.2-6.1-2.1-12.3-3-18.4C1006.2,538.3,1009.2,534.9,1013,534.8z"/>
		<path fill="#81514F" d="M1213.8,614.3c-1.7-2.1-4.4-3.6-7.7-4.7c-17.8-6-54.8-0.1-68.4-0.3c-22.7-0.4-24.4,22.3-18.9,39.2
			c5.2,16,10.5,15.9,26.8,16.9c17.8,1,39.8,3.7,57.3-1.1c15.5-4.2,17.5-21.1,15.8-36.2C1218.1,623.1,1216.9,618.1,1213.8,614.3z
			 M1207.9,639.5c-0.3,2.7-0.2,9.2-1.8,11.3c-2.5,3.3-9.6,2.3-13.2,2.7c-6.4,0.7-12.8,0.7-19.3,0.8c-11.8,0.2-23.7-0.6-35.5-1.5
			c-2.8-0.2-5.1-2.2-5.6-4.9c-1.2-6.1-2.1-12.3-3-18.4c-0.5-3.8,2.4-7.2,6.2-7.3c9.8-0.1,19.5-0.2,29.3-0.3c6.8,0,13.6-0.1,20.5-0.1
			c4.5-0.1,9.1-0.1,13.6-0.2C1208.8,621.6,1208.6,632.5,1207.9,639.5z"/>
		<path fill="#81514F" d="M1022.9,665.3c17.8,1,39.8,3.7,57.3-1.1c15.5-4.2,17.5-21.1,15.8-36.2c-0.5-4.9-1.8-9.9-4.9-13.7
			c-1.7-2.1-4.4-3.6-7.7-4.7c-17.8-6-54.8-0.1-68.4-0.3c-22.7-0.4-24.4,22.3-18.9,39.2C1001.2,664.4,1006.5,664.4,1022.9,665.3z
			 M1013,622.3c9.8-0.1,19.5-0.2,29.3-0.3c6.8,0,13.6-0.1,20.5-0.1c4.5-0.1,9.1-0.1,13.6-0.2c9.7-0.1,9.5,10.8,8.8,17.8
			c-0.3,2.7-0.2,9.2-1.8,11.3c-2.5,3.3-9.6,2.3-13.2,2.7c-6.4,0.7-12.8,0.7-19.3,0.8c-11.8,0.2-23.7-0.6-35.5-1.5
			c-2.8-0.2-5.1-2.2-5.6-4.9c-1.2-6.1-2.1-12.3-3-18.4C1006.2,625.8,1009.2,622.3,1013,622.3z"/>
		<path fill="#81514F" d="M1213.8,701.7c-1.7-2.1-4.4-3.6-7.7-4.7c-17.8-6-54.8-0.1-68.4-0.3c-22.7-0.4-24.4,22.3-18.9,39.2
			c5.2,16,10.5,15.9,26.8,16.9c17.8,1,39.8,3.7,57.3-1.1c15.5-4.2,17.5-21.1,15.8-36.2C1218.1,710.6,1216.9,705.5,1213.8,701.7z
			 M1207.9,727c-0.3,2.7-0.2,9.2-1.8,11.3c-2.5,3.3-9.6,2.3-13.2,2.7c-6.4,0.7-12.8,0.7-19.3,0.8c-11.8,0.2-23.7-0.6-35.5-1.5
			c-2.8-0.2-5.1-2.2-5.6-4.9c-1.2-6.1-2.1-12.3-3-18.4c-0.5-3.8,2.4-7.2,6.2-7.3c9.8-0.1,19.5-0.2,29.3-0.3c6.8,0,13.6-0.1,20.5-0.1
			c4.5-0.1,9.1-0.1,13.6-0.2C1208.8,709,1208.6,720,1207.9,727z"/>
		<path fill="#81514F" d="M1022.9,752.7c17.8,1,39.8,3.7,57.3-1.1c15.5-4.2,17.5-21.1,15.8-36.2c-0.5-4.9-1.8-9.9-4.9-13.7
			c-1.7-2.1-4.4-3.6-7.7-4.7c-17.8-6-54.8-0.1-68.4-0.3c-22.7-0.4-24.4,22.3-18.9,39.2C1001.2,751.9,1006.5,751.8,1022.9,752.7z
			 M1013,709.7c9.8-0.1,19.5-0.2,29.3-0.3c6.8,0,13.6-0.1,20.5-0.1c4.5-0.1,9.1-0.1,13.6-0.2c9.7-0.1,9.5,10.8,8.8,17.8
			c-0.3,2.7-0.2,9.2-1.8,11.3c-2.5,3.3-9.6,2.3-13.2,2.7c-6.4,0.7-12.8,0.7-19.3,0.8c-11.8,0.2-23.7-0.6-35.5-1.5
			c-2.8-0.2-5.1-2.2-5.6-4.9c-1.2-6.1-2.1-12.3-3-18.4C1006.2,713.2,1009.2,709.8,1013,709.7z"/>
		<path fill="#81514F" d="M1292,600.2c-0.3,0-0.4,0.2-0.7,0.2c-15.2-0.3-30.4,0.8-45.2,4c-17.5,3.7-11.2,31.1-10.6,42.1
			c1.6,27.3-0.7,58.3,4.9,85.1c4,19.1,22.8,16.6,39.2,16.9c11.2,0.2,44.8,4.1,53.6-6.3c13.1-15.5,9.7-42,10.5-61
			c1-22.9,5.6-53.6-3.7-75.1C1334.5,593.5,1302,598.5,1292,600.2z M1332.1,670.8c-0.2,13.9-1,27.8-2,41.7
			c-1.9,27.2-30.3,25-50.5,24.8c-40.1-0.5-30.5-63-31.8-90.8c-1.1-23.1-1.4-30.6,24.8-33.4c16.2-1.7,32.6-1.2,48.8-0.5
			c5.4,1.1,9.5,2.9,9.9,6C1333.4,635.6,1332.3,653.7,1332.1,670.8z"/>
	</g>
	<g>
		<path fill="#F37B78" d="M135.1,552.3c0,81,4.5,163.1,0,244.1c104.4-1.9,208.8-3.7,313.2-5.1c99.1-1.4,201-9.2,299.9-1.9
			c-7.3-83.6-1.6-169.9-1.7-253.8c-0.1-79.9-6.9-163.7,2.2-243.3c-29.4,0.4-62.4,3.6-91.5-1.7c-11.2,11.5-22.4,23.1-33.6,34.6
			c24.7-1.5,49.7-0.7,74.2,0.5c3.9-1,8.6,1.2,9,6.6c3.9,58.9,0.9,118.7,1.1,177.7c0.2,57.8,3,116.5-1.8,174.1
			c1.6,4.3-0.6,10-6.4,9.8c-174.7-4.6-348.8,0.3-523.4,1.1c-1.2,0-2.1-0.2-3-0.6c-3.1-0.4-6-2.5-6.1-6.7
			c-1-118.1-3.1-236.8,0.6-354.8c-1.4-3.2,0.2-7.6,4.9-8c59.5-4.2,119.9-1.5,179.5-1.5c59.4,0,120.3-3.5,179.5,1.8
			c0.6,0.1,1.1,0.3,1.6,0.4c10.6-12.6,21.6-24.7,32.8-36.7c-1.2,1.3-11.2-0.1-13.2-0.1c-4.4,0-8.8,0-13.2,0
			c-9.2,0-18.4,0.1-27.6,0.2c-17.6,0.2-35.2,0-52.8,1.1c-71.8,4.5-143.9,8.2-215.8,6c-9.3-0.3-108.7-2.8-108.9-5.4
			C139.6,377.3,135.1,465.5,135.1,552.3z"/>
		<path fill="#F99F1C" d="M528.7,399.2c-5.4-8.5-12-15.9-19.9-22.3c-4.5,10.4-8,21.3-11,32.3C508.5,406.9,518.8,403.6,528.7,399.2z"
			/>
		<path fill="#FFE0A8" d="M610.3,338.7c-21.8,22.4-43.5,44.7-65.2,67.1c-0.4,0.4-0.8,0.6-1.3,0.9c-0.5,0.6-1.1,1.2-1.8,1.5
			c-14.6,7.1-29.8,12.3-45.8,15.4c-1.2,0.2-2.3,0.1-3.4-0.2c-3.5,2.4-9.6-0.4-8.4-5.8c0.1-0.3,0.1-0.5,0.2-0.8
			c-24.3,2.9-48.4,6.9-72.5,11.2c32,5,57.2,23.4,74.8,51.2c12.3,19.4,24,37.8,41.8,45.4c0.8-1.2,1.7-2.4,2.9-3.4
			c4.9-4.2,10.8-6.6,17.3-5.2c0.5,0.1,0.9,0.3,1.4,0.5c0.3,0.1,0.6,0.2,0.8,0.3c1.3,0.4,2.5,0.9,3.7,1.6c0.1,0.1,0.2,0.1,0.3,0.1
			c0.1,0.1,0.2,0.2,0.3,0.2c3.1,1.9,5.5,4.6,7.1,7.6c2.5-0.6,5-1.3,7.6-2.2c30.1-10.2,41.5-30.1,49.5-56c0.8-6.1,2.3-12.1,3.1-18.2
			c0.7-5.7,0.7-11.6,3.7-16.7c2.3-3.9,7.6-2.7,9,1.2c2,5.7,0.6,12.1-0.8,17.9c0,0.4,0.1,0.7,0.1,1.2c-4,30.9-13.1,55.6-37.6,71.8
			c16.8-1.8,33.6-2.4,50-0.7c1.7-4.2,4.8-7.9,9.2-9c5.7-1.3,12.2,0.7,15.3,6c3.3,5.8,3,14.1-2.1,18.9c-4.6,4.3-12.7,6.6-17.7,1.2
			c-0.3-0.3-0.4-0.7-0.7-1.1c-1.8-1.1-3.2-2.7-4.2-4.6c-27.1,2.1-54.3,1.8-81.5,4.1c-0.4,4.5-2.3,8.8-6.2,12
			c-5.9,4.8-12.8,6.8-20.2,4c-5.8-2.2-11.3-7.8-12.8-14.1c-25.2,0.3-51.1-2.8-75.9-5.3c-2.3,5.3-7,10.1-13.2,9.7
			c-7-0.4-14.4-5.7-14.1-13.4c0.1-2.2,0.6-4.1,1.5-5.9c0.4-1.3,0.9-2.6,1.7-3.8c4.2-5.9,11.2-8.7,18.2-6.2c4,1.4,6.6,3.9,7.2,8
			c18.6,1.2,37.5,1.6,56.3,2.7c-3.1-2.3-6.1-4.8-8.9-7.7c-16.4-16.9-23.4-40.7-41.4-56.6c-17.1-15.1-37.5-23.2-58.2-22.8
			c-2.5,10.6-12.6,17.5-23.5,15.5c-4.2-0.8-8.3-2.9-11.7-5.8c-1.8,1-3.6,2-5.4,3.2c-41.6,27-66.5,68.7-79,115.3
			c2.5,0.6,4.8,1.8,6.7,3.7c9.7,9.6,6.8,25.1-3.2,33.4c-10.7,8.9-26.6,0.7-31.4-10.7c-4.5-10.7,2-23.8,13.9-24.4
			c1-0.5,2-0.9,3.1-1.3c11.8-46.7,41.6-106.4,86-131.3c-33.8,6.2-67.6,11.9-101.7,15.6c-0.2,5.5-3,10.9-8.2,13.5
			c-8.4,4.2-20.4-0.1-22.2-10c-1.2-6.7,1-12.8,5.6-16.6c0.4-0.4,0.9-0.7,1.3-1c0.4-0.3,0.8-0.5,1.2-0.8c0.4-0.2,0.8-0.4,1.2-0.5
			c1.6-0.7,3.3-1.3,5.3-1.5c6-0.7,10.9,1.9,13.6,6.1c36.2-4.6,72.1-11.1,107.9-17.9c4.2-6.9,12.6-11,20.7-8.4
			c3.5,0.3,6.7,1.3,9.6,2.7c32.7-6,65.4-11.7,98.4-15.5c3.5-13.3,7.8-26.4,12-39.6c0.9-2.7,3.5-4.8,6.3-5c5.9-7.9,12-15.6,18.2-23.2
			c-56.9,4.4-115.1,1.3-172,1.3c-56.4,0-113.6,2.3-170-1c3,114.7,0.7,230-0.8,344.7c169.8-10.7,341.5-7.2,511.4-2.1
			c-4.3-56.1-1.5-113.1-1.4-169.3c0.1-56.2-2.4-113.2,0.7-169.4C664.8,339.7,637.5,339.9,610.3,338.7z"/>
		<path fill="#F99F1C" d="M540.1,391.7c26.7-27.5,53.3-55.2,80-82.7c15.7-16.1,31.3-32.3,47-48.4c10.5-7.1,14.8-17.3,12.9-30.7
			c-5.2-7.4-12.5-11.1-22-11.2c-52.3,44.5-98,94.2-142,146.7C525.5,372.7,533.6,381.5,540.1,391.7z"/>
		<path fill="#81514F" d="M130.2,811.5c101.4-1.7,202.8-3.3,304.3-4.6c105.2-1.4,213.4,4.7,318.1-5.3c4.2-0.4,6.1-3.8,5.6-6.9
			c1.2-1,2-2.5,2.2-4.5c7.4-83.8,1.7-170.5,1.8-254.6c0.1-47.5,2.4-95,2.6-142.5c0.1-23.8-0.4-47.6-2-71.3c-0.4-5.6-0.1-12-1.4-17.5
			c-0.7-3.1-3.1-5.4-4.8-8.1c-3.8-6-7.6-12.1-11.3-18.1c-0.3-0.5-0.6-1-0.9-1.5c-23.8-0.5-49.5-2.4-73.6-0.1c2-2.1,4-4.1,6-6.2
			c4.2-4.3,28.4-22.3,24.3-32c-7.1-16.7-20.4-27.4-34.9-38c-2.5-1.9-6-0.8-8.2,1.1c-27.5,24-54.3,48.7-79.7,74.7
			c-0.1,0-0.2-0.1-0.3-0.1c-72.2-2.2-144.2,2.4-216.4,1.9c-73.6-0.4-147.2-2.1-220.8-0.6c-4.4,0.1-8.8,0.2-13.2,0.3
			c-5.7,0.1-7.3,6-5,9.7c-5.1,83.1-0.8,167.8-0.7,251.1c0,88.3-5.1,177.9,0.3,266c0.1,2.3,1.2,3.9,2.7,4.9
			C126,810.6,127.8,811.6,130.2,811.5z M658,218.6c9.5,0.1,16.8,3.8,22,11.2c1.9,13.3-2.4,23.6-12.9,30.7
			c-15.7,16.1-31.3,32.3-47,48.4c-26.7,27.5-53.3,55.2-80,82.7c-6.5-10.2-14.6-19-24.2-26.4C559.9,312.9,605.7,263.1,658,218.6z
			 M691.3,509.9c-0.1,56.2-2.8,113.2,1.4,169.3c-169.9-5.1-341.7-8.6-511.4,2.1c1.5-114.7,3.8-230,0.8-344.7c56.4,3.3,113.6,1,170,1
			c56.9,0,115.2,3.2,172-1.3c-6.2,7.6-12.3,15.4-18.2,23.2c-2.8,0.2-5.4,2.2-6.3,5c-4.2,13.2-8.5,26.3-12,39.6
			c1.4-0.2,2.8-0.3,4.2-0.5c7.8-0.9,7.7,11.3,0,12.2c-2.4,0.3-4.8,0.6-7.2,0.9c-0.1,0.3-0.1,0.5-0.2,0.8c-1.2,5.4,5,8.2,8.4,5.8
			c1,0.3,2.1,0.4,3.4,0.2c16-3.1,31.2-8.3,45.8-15.4c0.8-0.4,1.3-0.9,1.8-1.5c0.4-0.3,0.9-0.4,1.3-0.9
			c21.7-22.4,43.5-44.7,65.2-67.1c27.2,1.3,54.4,1,81.6,1.8C688.9,396.7,691.3,453.7,691.3,509.9z M508.9,376.9
			c7.8,6.4,14.4,13.8,19.9,22.3c-10,4.4-20.2,7.6-30.9,10C500.9,398.2,504.4,387.4,508.9,376.9z M243.4,296c72,2.2,144-1.5,215.8-6
			c17.6-1.1,35.2-0.9,52.8-1.1c9.2-0.1,18.4-0.2,27.6-0.2c4.4,0,8.8,0,13.2,0c2,0,12,1.4,13.2,0.1c-11.3,11.9-22.2,24.1-32.8,36.7
			c-0.5-0.2-1-0.4-1.6-0.4c-59.2-5.3-120.1-1.8-179.5-1.8c-59.6,0-120-2.7-179.5,1.5c-4.7,0.3-6.3,4.8-4.9,8
			c-3.7,118-1.7,236.8-0.6,354.8c0,4.1,2.9,6.3,6.1,6.7c0.8,0.4,1.8,0.6,3,0.6c174.6-0.8,348.7-5.7,523.4-1.1c5.9,0.2,8-5.5,6.4-9.8
			c4.8-57.6,2-116.3,1.8-174.1c-0.2-59,2.7-118.8-1.1-177.7c-0.4-5.4-5.1-7.6-9-6.6c-24.6-1.2-49.5-1.9-74.2-0.5
			c11.2-11.5,22.4-23.1,33.6-34.6c29.1,5.3,62.1,2.1,91.5,1.7c-9,79.7-2.3,163.5-2.2,243.3c0.1,83.9-5.5,170.2,1.7,253.8
			c-98.9-7.2-200.8,0.5-299.9,1.9c-104.4,1.5-208.8,3.2-313.2,5.1c4.4-81-0.1-163,0-244.1c0-86.8,4.5-175-0.6-261.6
			C134.6,293.3,234.1,295.8,243.4,296z"/>
		<path fill="#81514F" d="M758.7,280.9c-0.5-3.6-3.7-4.9-6.1-3.8c-0.6-0.1-1.1-0.4-1.8-0.4c-2,0-4.1-0.1-6.2-0.1l16.5,24.8
			C760.4,294.6,759.6,287.7,758.7,280.9z"/>
		<path fill="#81514F" d="M742,272.7c-0.1-0.1-0.2-0.2-0.3-0.3l2.7,4.2c0.1,0,0.2,0,0.3,0L742,272.7z"/>
		<path fill="#81514F" d="M379.6,416.9c-8.1-2.6-16.5,1.5-20.7,8.4c-35.8,6.7-71.7,13.3-107.9,17.9c-2.7-4.2-7.6-6.8-13.6-6.1
			c-1.9,0.2-3.7,0.8-5.3,1.5c-0.4,0.2-0.8,0.3-1.2,0.5c-0.4,0.2-0.8,0.5-1.2,0.8c-0.5,0.3-0.9,0.6-1.3,1c-4.6,3.8-6.8,9.9-5.6,16.6
			c1.8,9.9,13.8,14.2,22.2,10c5.2-2.6,8-8,8.2-13.5c34.1-3.7,67.9-9.4,101.7-15.6c-44.4,24.9-74.2,84.7-86,131.3
			c-1,0.4-2.1,0.8-3.1,1.3c-11.9,0.7-18.5,13.7-13.9,24.4c4.8,11.4,20.7,19.6,31.4,10.7c10.1-8.3,13-23.8,3.2-33.4
			c-1.9-1.9-4.2-3.1-6.7-3.7c12.4-46.6,37.4-88.3,79-115.3c1.8-1.2,3.6-2.2,5.4-3.2c3.4,3,7.6,5.1,11.7,5.8
			c10.9,2,21.1-4.9,23.5-15.5c20.7-0.5,41.1,7.7,58.2,22.8c18,15.9,25,39.7,41.4,56.6c2.8,2.9,5.9,5.4,8.9,7.7
			c-18.8-1.1-37.7-1.5-56.3-2.7c-0.7-4.1-3.2-6.6-7.2-8c-7-2.5-14,0.3-18.2,6.2c-0.8,1.1-1.3,2.4-1.7,3.8c-0.9,1.7-1.4,3.7-1.5,5.9
			c-0.3,7.8,7.1,13,14.1,13.4c6.2,0.4,10.9-4.4,13.2-9.7c24.9,2.5,50.8,5.6,75.9,5.3c1.5,6.3,6.9,11.9,12.8,14.1
			c7.4,2.8,14.2,0.8,20.2-4c3.9-3.2,5.7-7.5,6.2-12c27.2-2.4,54.4-2.1,81.5-4.1c1,1.9,2.4,3.5,4.2,4.6c0.3,0.3,0.4,0.7,0.7,1.1
			c4.9,5.3,13,3.1,17.7-1.2c5.1-4.8,5.4-13.1,2.1-18.9c-3-5.3-9.6-7.3-15.3-6c-4.4,1-7.5,4.8-9.2,9c-16.4-1.7-33.3-1.1-50,0.7
			c24.5-16.2,33.6-40.9,37.6-71.8c0.1-0.4,0-0.8-0.1-1.2c1.4-5.8,2.9-12.2,0.8-17.9c-1.4-3.9-6.7-5.1-9-1.2c-2.9,5.1-3,11-3.7,16.7
			c-0.7,6.1-2.3,12.1-3.1,18.2c-8,25.9-19.3,45.8-49.5,56c-2.6,0.9-5.2,1.6-7.6,2.2c-1.7-3-4.1-5.7-7.1-7.6
			c-0.1-0.1-0.2-0.2-0.3-0.2c-0.1-0.1-0.2-0.1-0.3-0.1c-1.2-0.7-2.4-1.2-3.7-1.6c-0.3-0.1-0.6-0.2-0.8-0.3c-0.5-0.1-0.9-0.4-1.4-0.5
			c-6.5-1.3-12.4,1-17.3,5.2c-1.2,1-2.1,2.2-2.9,3.4c-17.8-7.6-29.5-26-41.8-45.4c-17.6-27.8-42.8-46.1-74.8-51.2
			c24.1-4.3,48.2-8.2,72.5-11.2c0.9-4.2,1.9-8.4,3-12.5c-33,3.8-65.8,9.4-98.4,15.5C386.4,418.2,383.1,417.2,379.6,416.9z"/>
		<path fill="#81514F" d="M491.9,415.9c7.7-0.9,7.8-13,0-12.2c-1.4,0.2-2.8,0.3-4.2,0.5c-1.1,4.1-2.1,8.3-3,12.5
			C487,416.4,489.5,416.1,491.9,415.9z"/>
	</g>
	<g>
		<path fill="#F37B78" d="M1837,728.1c12.3-0.3,24.7-0.5,37-1c12.2-0.5,24.9-0.2,37-1.7c9.4-1.2,8.8-21.1,8.8-29.4
			c-20.4,0.4-40.8,0.9-61.2,1.3c-14.9,0.3-29.8,0.7-44.8,1C1814.5,713.8,1816.3,728.6,1837,728.1z"/>
		<path fill="#F37B78" d="M1925.6,733.4c-1.5,1.5-3.2,2.9-5.3,4c-7.4,4-19.8,2.2-27.8,2.5c-12.3,0.5-24.7,1-37,1.2
			c-11.2,0.2-37,5.6-44.4-7.2c-0.6-1.1-1.1-2.3-1.6-3.4c-0.1,0-0.1,0.1-0.2,0.1c-43-2-58.2,30.1-18.4,40.5c4.5,0.3,8.9,0.7,13.4,1
			c8.9,0.6,17.8,1.1,26.7,1.6c17.8,0.7,35.7,1.3,53.5,1.1c20.9-0.2,43.2,0.5,63.6-4c18.8,0.1,53-22.2,14.6-35.3
			c-12-3.2-24-3.8-36.1-1.9C1926.3,733.5,1926,733.4,1925.6,733.4z"/>
		<path fill="#F99F1C" d="M2022.9,545.5c-0.1,14.9,0.1,29.9-1.1,44.8c23.2-2.4,48.6-3.2,71.8-1.3c-2.5-27.3-4.3-205.3-1.9-232.4
			c-22.8,2.3-47.5,1.8-70.2-0.9C2024.2,369.2,2023,531.8,2022.9,545.5z"/>
		<path fill="#FFE0A8" d="M2111.2,676.5c58.7-1.3,53.2-74,53.8-116.9c0.9-65,0.9-130.3,0-195.3c-0.6-42.9,4.9-115.6-53.8-116.9
			c-84.2-1.9-168.4-3.7-252.6-5.6c-81.8-1.8-165.8-9.3-247.5-5.1c-40.3,2.1-44.7,29.4-46.9,64c-1.2,18.5-2.3,37.1-2.8,55.7
			c-1.8,70.2-1.8,140.9,0,211.1c0.5,18.6,1.6,37.1,2.8,55.7c2.2,34.6,6.6,61.9,46.9,64c81.7,4.2,165.7-3.3,247.5-5.1
			C1942.8,680.2,2027,678.3,2111.2,676.5z M2009.2,353.1c0.1-0.5,0.4-0.9,0.6-1.3c-1-3.1,1.4-7.6,5.3-8.1c26.9-3.1,58-4.3,84.9-1.5
			c5.5,0.6,8.5,7.7,5.6,11.4c4,30.6,3,212.6,1.3,243.3c0,0.2-0.1,0.4-0.1,0.6c0,2.6-1.4,5-4.9,5.5c-28,4.1-60.3,3.2-88.2-0.9
			c-2.8-0.4-3.9-2.2-4-4.2c-0.4-0.8-0.7-1.7-0.8-2.7c-1.7-16.4-1.4-33-1.4-49.5C2007.3,530.9,2005.8,367.3,2009.2,353.1z
			 M1880.7,444.9c0.1-0.5,0.4-0.9,0.6-1.3c-1-3.1,1.4-7.6,5.3-8.1c26.9-3.1,58-4.3,84.9-1.5c5.5,0.6,8.5,7.7,5.6,11.4
			c4,30.6,3,120.8,1.3,151.5c0,0.2-0.1,0.4-0.1,0.6c0,2.6-1.4,5-4.9,5.5c-28,4.1-60.3,3.2-88.2-0.9c-2.8-0.4-3.9-2.2-4-4.2
			c-0.4-0.8-0.7-1.7-0.8-2.7c-1.7-16.4-1.4-33-1.4-49.5C1878.8,530.9,1877.3,459.1,1880.7,444.9z M1721.3,596.8
			c0,0.2-0.1,0.4-0.1,0.6c0,2.6-1.4,5-4.9,5.5c-28,4.1-60.3,3.2-88.2-0.9c-2.8-0.4-3.9-2.2-4-4.2c-0.4-0.8-0.7-1.7-0.8-2.7
			c-1.7-16.4-1.4-33-1.4-49.5c-0.1-14.6-1.5-29.8,1.9-44.1c0.1-0.5,0.4-0.9,0.6-1.3c-1-3.1,1.4-7.6,5.3-8.1
			c26.9-3.1,58-4.3,84.9-1.5c5.5,0.6,8.5,7.7,5.6,11.4C1724.1,532.4,1723.1,566.1,1721.3,596.8z M1849.8,596.8
			c0,0.2-0.1,0.4-0.1,0.6c0,2.6-1.4,5-4.9,5.5c-28,4.1-60.3,3.2-88.2-0.9c-2.8-0.4-3.9-2.2-4-4.2c-0.4-0.8-0.7-1.7-0.8-2.7
			c-1.7-16.4-1.4-33-1.4-49.5c-0.1-14.6-1.5-129.7,1.9-144c0.1-0.5,0.4-0.9,0.6-1.3c-1-3.1,1.4-7.6,5.3-8.1
			c26.9-3.1,58-4.3,84.9-1.5c5.5,0.6,8.5,7.7,5.6,11.4C1852.6,432.5,1851.6,566.1,1849.8,596.8z"/>
		<path fill="#F99F1C" d="M1894.3,488.9c-0.1,14.9,0.1,86.5-1.1,101.4c23.2-2.4,48.6-3.2,71.8-1.3c-2.5-27.3-4.3-113.5-1.9-140.5
			c-22.8,2.3-47.5,1.8-70.2-0.9C1895.6,461,1894.5,475.2,1894.3,488.9z"/>
		<path fill="#F99F1C" d="M1834.7,405c-22.8,2.3-47.5,1.8-70.2-0.9c2.7,13.5,1.5,127.6,1.4,141.3c-0.1,14.9,0.1,29.9-1.1,44.8
			c23.2-2.4,48.6-3.2,71.8-1.3C1834.1,561.6,1832.3,432.1,1834.7,405z"/>
		<path fill="#F99F1C" d="M1706.1,505c-22.8,2.3-47.5,1.8-70.2-0.9c2.7,13.5,1.5,27.7,1.4,41.4c-0.1,14.9,0.1,29.9-1.1,44.8
			c23.2-2.4,48.6-3.2,71.8-1.3C1705.5,561.6,1703.7,532.1,1706.1,505z"/>
		<path fill="#81514F" d="M1714.4,490.5c-26.9-2.8-58-1.6-84.9,1.5c-3.9,0.5-6.3,4.9-5.3,8.1c-0.2,0.4-0.5,0.8-0.6,1.3
			c-3.4,14.3-2,29.4-1.9,44.1c0.1,16.5-0.3,33.1,1.4,49.5c0.1,1.1,0.4,2,0.8,2.7c0.1,2,1.2,3.8,4,4.2c27.9,4.1,60.3,4.9,88.2,0.9
			c3.5-0.5,4.9-2.9,4.9-5.5c0-0.2,0.1-0.4,0.1-0.6c1.8-30.6,2.8-64.3-1.3-94.9C1722.9,498.2,1720,491,1714.4,490.5z M1636.2,590.3
			c1.2-14.9,0.9-29.9,1.1-44.8c0.1-13.7,1.3-27.9-1.4-41.4c22.7,2.7,47.4,3.2,70.2,0.9c-2.4,27.1-0.6,56.6,1.9,84
			C1684.8,587.1,1659.4,587.9,1636.2,590.3z"/>
		<path fill="#81514F" d="M1843,390.5c-26.9-2.8-58-1.6-84.9,1.5c-3.9,0.5-6.3,4.9-5.3,8.1c-0.2,0.4-0.5,0.8-0.6,1.3
			c-3.4,14.3-2,129.4-1.9,144c0.1,16.5-0.3,33.1,1.4,49.5c0.1,1.1,0.4,2,0.8,2.7c0.1,2,1.2,3.8,4,4.2c27.9,4.1,60.3,4.9,88.2,0.9
			c3.5-0.5,4.9-2.9,4.9-5.5c0-0.2,0.1-0.4,0.1-0.6c1.8-30.6,2.8-164.2-1.3-194.8C1851.4,398.3,1848.5,391.1,1843,390.5z
			 M1764.7,590.3c1.2-14.9,0.9-29.9,1.1-44.8c0.1-13.7,1.3-127.9-1.4-141.3c22.7,2.7,47.4,3.2,70.2,0.9
			c-2.4,27.1-0.6,156.6,1.9,183.9C1813.4,587.1,1787.9,587.9,1764.7,590.3z"/>
		<path fill="#81514F" d="M1880.3,595c0.1,1.1,0.4,2,0.8,2.7c0.1,2,1.2,3.8,4,4.2c27.9,4.1,60.3,4.9,88.2,0.9
			c3.5-0.5,4.9-2.9,4.9-5.5c0-0.2,0.1-0.4,0.1-0.6c1.8-30.6,2.8-120.9-1.3-151.5c2.9-3.7,0-10.8-5.6-11.4c-26.9-2.8-58-1.6-84.9,1.5
			c-3.9,0.5-6.3,4.9-5.3,8.1c-0.2,0.4-0.5,0.8-0.6,1.3c-3.4,14.3-2,86-1.9,100.6C1878.9,562,1878.5,578.6,1880.3,595z M1963.2,448.4
			c-2.4,27.1-0.6,113.2,1.9,140.5c-23.2-1.8-48.6-1-71.8,1.3c1.2-14.9,0.9-86.5,1.1-101.4c0.1-13.7,1.3-27.9-1.4-41.4
			C1915.6,450.2,1940.4,450.7,1963.2,448.4z"/>
		<path fill="#81514F" d="M2008.8,595c0.1,1.1,0.4,2,0.8,2.7c0.1,2,1.2,3.8,4,4.2c27.9,4.1,60.3,4.9,88.2,0.9
			c3.5-0.5,4.9-2.9,4.9-5.5c0-0.2,0.1-0.4,0.1-0.6c1.8-30.6,2.8-212.7-1.3-243.3c2.9-3.7,0-10.8-5.6-11.4c-26.9-2.8-58-1.6-84.9,1.5
			c-3.9,0.5-6.3,4.9-5.3,8.1c-0.2,0.4-0.5,0.8-0.6,1.3c-3.4,14.3-2,177.8-1.9,192.4C2007.4,562,2007.1,578.6,2008.8,595z
			 M2091.7,356.6c-2.4,27.1-0.6,205,1.9,232.4c-23.2-1.8-48.6-1-71.8,1.3c1.2-14.9,0.9-29.9,1.1-44.8c0.1-13.7,1.3-176.3-1.4-189.8
			C2044.2,358.4,2068.9,358.9,2091.7,356.6z"/>
		<path fill="#81514F" d="M1802.7,698.5c-0.3,7,0.5,13.9,2.3,20.5c-21.7,1-64.9,11.2-53.9,41.7c13.5,37.4,75.8,27.6,106.6,28.4
			c31.1,0.8,119.1,9.8,139.1-24.3c21.2-36.2-37.6-46.1-64.3-46.1c1.4-7.4,1-15.7,1.1-23.2c31.1-0.7,62.3-1.4,93.4-2
			c38-0.8,91.4,8.7,126.2-8.9c25.8-13,25.9-76,26.7-99.8c2.6-81.5,2.6-164.6,0-246.1c-0.8-23.8-0.9-86.8-26.7-99.8
			c-34.8-17.6-88.2-8-126.2-8.9c-56.1-1.2-112.3-2.4-168.4-3.7c-56.1-1.2-112.3-2.5-168.4-3.8c-37.8-0.8-81.7-8.9-117.4,6.7
			c-28.6,12.5-23.5,61.6-24.8,85.1c-5.4,97.3-5.4,197.3,0,294.6c1.3,23.5-3.8,72.6,24.8,85.1c35.7,15.6,79.6,7.5,117.4,6.7
			C1727.7,700.2,1765.2,699.4,1802.7,698.5z M1962.8,735.4c38.4,13.2,4.2,35.5-14.6,35.3c-20.5,4.5-42.7,3.8-63.6,4
			c-17.9,0.2-35.7-0.4-53.5-1.1c-8.9-0.4-17.8-0.9-26.7-1.6c-4.5-0.3-8.9-0.7-13.4-1c-39.8-10.3-24.6-42.5,18.4-40.5
			c0.1,0,0.2-0.1,0.2-0.1c0.6,1.1,1,2.3,1.6,3.4c7.3,12.8,33.2,7.4,44.4,7.2c12.3-0.3,24.7-0.7,37-1.2c8-0.3,20.4,1.4,27.8-2.5
			c2.1-1.1,3.8-2.5,5.3-4c0.4,0,0.7,0.2,1.1,0.1C1938.8,731.6,1950.8,732.3,1962.8,735.4z M1813.9,698.3c14.9-0.3,29.8-0.7,44.8-1
			c20.4-0.4,40.8-0.9,61.2-1.3c0.1,8.3,0.6,28.2-8.8,29.4c-12.1,1.5-24.8,1.2-37,1.7c-12.3,0.5-24.7,0.7-37,1
			C1816.3,728.6,1814.5,713.8,1813.9,698.3z M1611.1,687.1c-40.3-2.1-44.7-29.4-46.9-64c-1.2-18.5-2.3-37.1-2.8-55.7
			c-1.8-70.2-1.8-140.9,0-211.1c0.5-18.6,1.6-37.1,2.8-55.7c2.2-34.6,6.6-61.9,46.9-64c81.7-4.2,165.7,3.3,247.5,5.1
			c84.2,1.8,168.4,3.7,252.6,5.6c58.7,1.3,53.2,74,53.8,116.9c0.9,65,0.9,130.3,0,195.3c-0.6,42.9,4.9,115.6-53.8,116.9
			c-84.2,1.9-168.4,3.7-252.6,5.6C1776.8,683.8,1692.8,691.3,1611.1,687.1z"/>
	</g>
	<g>
		<path fill="#F99F1C" d="M1381.2,1054.6c-8.9,9-17.7,18.1-26.6,27.1c6.1,6.3,11.9,12.8,17.7,19.4c5.2,5.9,11.6,11.5,14.6,18.8
			c1.7,4.3-3.9,7.7-7.4,5.7c-7.1-4.1-12.2-12.2-17.5-18.4c-5-5.9-10-11.8-14.8-17.9c-7.4,7.6-14.8,15.1-22.2,22.7
			c7.4,7.1,14.6,14.5,21.5,21.9c5.6,6-3.3,14.9-8.9,8.9c-7-7.4-14-14.9-20.6-22.7c-7.9,8.1-15.8,16.2-23.6,24.3
			c6.7,6.9,13.2,14.1,19.6,21.4c5.2,5.9,11.6,11.5,14.6,18.8c1.7,4.3-3.9,7.7-7.4,5.7c-7.1-4.1-12.2-12.2-17.5-18.4
			c-5.6-6.6-11.2-13.2-16.5-20c-7.5,7.7-14.9,15.3-22.4,23c8.1,7.6,15.8,15.6,23.3,23.7c5.6,6-3.3,14.9-8.9,8.9
			c-7.6-8-15.2-16.1-22.2-24.6c-7,7.2-14,14.5-21,21.7c6,6.3,11.8,12.7,17.5,19.2c5.2,5.9,11.6,11.5,14.6,18.8
			c1.7,4.3-3.9,7.7-7.4,5.7c-7.1-4.1-12.2-12.2-17.5-18.4c-5-5.8-9.9-11.6-14.6-17.6c-7.3,7.6-14.7,15.2-22,22.8
			c7.3,6.9,14.3,14.2,21.1,21.5c5.6,6-3.3,14.9-8.9,8.9c-6.9-7.2-13.7-14.6-20.1-22.2c-8.9,9.2-17.8,18.5-26.7,27.7
			c6.4,6.6,12.5,13.5,18.6,20.4c5.2,5.9,11.6,11.5,14.6,18.8c1.7,4.3-3.9,7.7-7.4,5.7c-7.1-4.1-12.2-12.2-17.5-18.4
			c-5.3-6.2-10.6-12.4-15.6-18.8c-7.4,7.7-14.8,15.3-22.2,23c7.7,7.2,15,14.9,22.2,22.6c5.6,6-3.3,14.9-8.9,8.9
			c-7.2-7.6-14.4-15.3-21.2-23.4c-9,9.3-18,18.7-27,28c6.7,6.9,13.1,14,19.4,21.2c5.2,5.9,11.6,11.5,14.6,18.8
			c1.7,4.3-3.9,7.7-7.4,5.7c-7.1-4.1-12.2-12.2-17.5-18.4c-5.6-6.5-11.1-13-16.4-19.8c-7.4,7.7-14.9,15.4-22.3,23.1
			c8,7.5,15.6,15.5,23.1,23.5c5.6,6-3.3,14.9-8.9,8.9c-7.5-7.9-15-15.9-22-24.3c-6.9,7.1-13.7,14.1-20.6,21.2
			c6.6,6.8,12.9,13.8,19.1,20.9c5.2,5.9,11.6,11.5,14.6,18.8c1.7,4.3-3.9,7.7-7.4,5.7c-7.1-4.1-12.2-12.2-17.5-18.4
			c-5.5-6.4-10.9-12.8-16.1-19.5c-7.4,7.7-14.9,15.3-22.3,22.9c7.9,7.4,15.5,15.4,22.9,23.3c5.6,6-3.3,14.9-8.9,8.9
			c-7.5-7.8-14.9-15.8-21.8-24.1c-7.6,7.7-15.1,15.4-22.7,23.2c6.6,6.8,13,13.9,19.3,21.1c5.2,5.9,11.6,11.5,14.6,18.8
			c1.7,4.3-3.9,7.7-7.4,5.7c-7.1-4.1-12.2-12.2-17.5-18.4c-5.6-6.5-11-13-16.3-19.7c-7.5,7.6-15,15.2-22.5,22.8
			c8,7.5,15.7,15.6,23.2,23.6c5.6,6-3.3,14.9-8.9,8.9c-7.6-7.9-15.1-16.1-22.2-24.5c-8.1,8.2-16.2,16.3-24.2,24.5
			c5.7,6,11.3,12.2,16.7,18.4c5.2,5.9,11.6,11.5,14.6,18.8c1.7,4.3-3.9,7.7-7.4,5.7c-7.1-4.1-12.2-12.2-17.5-18.4
			c-4.8-5.5-9.4-11.2-14-16.9c-7.4,7.5-14.9,14.9-22.4,22.3c7.2,6.9,14.1,14,20.8,21.3c5.6,6-3.3,14.9-8.9,8.9
			c-6.8-7.1-13.6-14.5-20-22c-5.2,5.2-10.4,10.5-15.6,15.6c33,30.9,63.8,64.3,96.4,95.7c165.5-177.9,338-349.8,508-523.4
			C1448,1113.8,1409.3,1089.4,1381.2,1054.6z"/>
		<path fill="#81514F" d="M1387.3,1042.9c-1.7-1.9-3.7-2.2-5.4-1.7c-2.4-1.5-5.6-1.7-8.2,1c-163.9,167.5-330.3,333.4-490.4,504.6
			c-0.4,0.3-0.7,0.7-1,1.1c-6.8,7.3-13.6,14.5-20.4,21.8c-0.9,1-1.3,2-1.5,3c-1.7,1.9-2.2,4.8-0.1,7.4
			c30.8,38,67.8,71.9,103.3,105.5c3.9,3.7,9,1.3,10.7-2.5c0.2-0.2,0.4-0.2,0.6-0.4c174-172.3,341.3-351.7,513.4-526
			c0.9-0.9,1.4-1.9,1.7-2.8c2.9-1.8,4.4-5.2,1.7-8.7C1461.6,1106.4,1420.5,1078.6,1387.3,1042.9z M968.3,1672.1
			c-32.6-31.4-63.4-64.7-96.4-95.7c5.2-5.2,10.4-10.4,15.6-15.6c6.4,7.5,13.2,14.9,20,22c5.7,5.9,14.5-3,8.9-8.9
			c-6.7-7.2-13.6-14.4-20.8-21.3c7.5-7.4,14.9-14.9,22.4-22.3c4.6,5.7,9.2,11.3,14,16.9c5.3,6.2,10.4,14.3,17.5,18.4
			c3.5,2,9.1-1.4,7.4-5.7c-3-7.4-9.4-12.9-14.6-18.8c-5.5-6.2-11-12.4-16.7-18.4c8.1-8.1,16.2-16.3,24.2-24.5
			c7,8.5,14.6,16.6,22.2,24.5c5.7,5.9,14.5-3,8.9-8.9c-7.5-8-15.2-16.1-23.2-23.6c7.5-7.6,15-15.2,22.5-22.8
			c5.2,6.7,10.7,13.2,16.3,19.7c5.3,6.2,10.4,14.3,17.5,18.4c3.5,2,9.1-1.4,7.4-5.7c-3-7.4-9.4-12.9-14.6-18.8
			c-6.3-7.1-12.6-14.2-19.3-21.1c7.6-7.7,15.1-15.4,22.7-23.2c6.9,8.3,14.4,16.3,21.8,24.1c5.7,5.9,14.5-3,8.9-8.9
			c-7.4-7.9-15-15.8-22.9-23.3c7.5-7.6,14.9-15.3,22.3-22.9c5.2,6.6,10.6,13.1,16.1,19.5c5.3,6.2,10.4,14.3,17.5,18.4
			c3.5,2,9.1-1.4,7.4-5.7c-3-7.4-9.4-12.9-14.6-18.8c-6.2-7.1-12.6-14.1-19.1-20.9c6.9-7.1,13.7-14.1,20.6-21.2
			c7,8.4,14.5,16.5,22,24.3c5.7,5.9,14.5-3,8.9-8.9c-7.4-8-15.1-16-23.1-23.5c7.4-7.7,14.9-15.4,22.3-23.1
			c5.3,6.7,10.8,13.3,16.4,19.8c5.3,6.2,10.4,14.3,17.5,18.4c3.5,2,9.1-1.4,7.4-5.7c-3-7.4-9.4-12.9-14.6-18.8
			c-6.3-7.2-12.7-14.4-19.4-21.2c9-9.3,18-18.6,27-28c6.8,8,13.9,15.8,21.2,23.4c5.7,5.9,14.5-3,8.9-8.9
			c-7.2-7.7-14.5-15.4-22.2-22.6c7.4-7.7,14.8-15.3,22.2-23c5,6.4,10.3,12.7,15.6,18.8c5.3,6.2,10.4,14.3,17.5,18.4
			c3.5,2,9.1-1.4,7.4-5.7c-3-7.4-9.4-12.9-14.6-18.8c-6.1-6.9-12.2-13.7-18.6-20.4c8.9-9.2,17.8-18.5,26.7-27.7
			c6.5,7.6,13.3,15,20.1,22.2c5.7,5.9,14.5-3,8.9-8.9c-6.8-7.3-13.8-14.6-21.1-21.5c7.3-7.6,14.7-15.2,22-22.8
			c4.7,6,9.6,11.8,14.6,17.6c5.3,6.2,10.4,14.3,17.5,18.4c3.5,2,9.1-1.4,7.4-5.7c-3-7.4-9.4-12.9-14.6-18.8
			c-5.7-6.5-11.5-13-17.5-19.2c7-7.2,14-14.5,21-21.7c7,8.5,14.6,16.6,22.2,24.6c5.7,5.9,14.5-3,8.9-8.9
			c-7.5-8.1-15.2-16.1-23.3-23.7c7.4-7.7,14.9-15.3,22.4-23c5.3,6.8,10.9,13.4,16.5,20c5.3,6.2,10.4,14.3,17.5,18.4
			c3.5,2,9.1-1.4,7.4-5.7c-3-7.4-9.4-12.9-14.6-18.8c-6.4-7.3-12.8-14.5-19.6-21.4c7.9-8.1,15.7-16.2,23.6-24.3
			c6.6,7.8,13.6,15.3,20.6,22.7c5.7,5.9,14.5-3,8.9-8.9c-6.9-7.5-14.1-14.9-21.5-21.9c7.4-7.6,14.8-15.1,22.2-22.7
			c4.8,6.1,9.8,12,14.8,17.9c5.3,6.2,10.4,14.3,17.5,18.4c3.5,2,9.1-1.4,7.4-5.7c-3-7.4-9.4-12.9-14.6-18.8
			c-5.8-6.6-11.6-13.1-17.7-19.4c8.9-9,17.7-18.1,26.6-27.1c28.1,34.8,66.8,59.3,95.1,94.1
			C1306.3,1322.3,1133.7,1494.2,968.3,1672.1z"/>
	</g>
	<g>
		<path fill="#F37B78" d="M177.6,1547.4c0.1,0.5,0.3,0.9,0.3,1.5c-0.3,12.4-0.7,24.8-1.1,37.2c87.3-35,179.8-46.3,273-32.8
			c0-2.3-0.1-4.6-0.1-6.9C357.8,1512.6,267,1517,177.6,1547.4z"/>
		<path fill="#FFE0A8" d="M449.8,1353.5c0-57.4-4.4-117,0.9-174.3c-0.9-1.1-1.4-2.4-1.4-3.8c-103.1-46.5-213.2-50.9-311.9,11.7
			c10.6,118.6,8,239.6,8.1,358.6c92.8-49.2,208.8-49.8,306.3-14.4C448,1472.2,449.8,1412.6,449.8,1353.5z"/>
		<path fill="#F37B78" d="M729.1,1550.7c-87.4-32.8-174.9-34.8-266.2-7.9c-0.2,0.8-0.5,1.5-0.8,2.2c0.4,3.5,0.9,7.1,1.3,10.6
			c86.4-16.4,186.2-21.9,266.6,17.3c-0.5-6.8-0.9-13.6-1.2-20.4C728.8,1551.8,729,1551.3,729.1,1550.7z"/>
		<path fill="#FFE0A8" d="M603.2,1151c-45.4,1.2-100.7-1.7-139,26.4c5.5,57.8,1,118.1,1,176.1c0,58.5,1.7,117.6-1.9,176
			c91.8-34.6,200.9-28.7,289.2,13.9c-1.2-115.6-6.5-234.6,2.9-349.9c-0.9-0.3-1.9-0.8-2.9-1.6C709.9,1158.6,656.2,1149.6,603.2,1151
			z"/>
		<path fill="#81514F" d="M767.1,1184.6c-0.3-3.3-2.5-5-4.9-5.3c0,0,0,0,0,0c-46.3-35.6-102-43.7-159.1-43.5
			c-46.5,0.2-105.6-0.9-144.4,29c-96.4-63.6-232.4-52.2-327.5,7.2c-2.9-0.3-5.9,1.5-6,5.5c-3.2,126.5,4.9,253.6,4.7,380.2
			c0,9.4,13.5,9.9,15.3,1.7c5.6-2.3,11.3-4.5,16.9-6.6c-0.5,15-0.9,29.9-1.4,44.9c-0.2,6.5,6.7,9,11.8,6.8
			c87.7-37.7,182.5-50.1,276.9-36.9c1,1.4,2.6,2.4,4.7,2.2c92.9-11.2,195.7-25.6,280.8,22.8c4.8,2.7,12.1-0.7,11.7-6.7
			c-0.7-9.9-1.5-19.7-2.5-29.5c3.7,1.5,7.3,3,11,4.6c6.8,3,12.9-4,10.7-9.3c0.1-0.4,0.3-0.7,0.3-1.2
			C768.6,1429.9,776.3,1305.2,767.1,1184.6z M176.7,1586.1c0.4-12.4,0.8-24.8,1.1-37.2c0-0.6-0.2-1-0.3-1.5
			c89.5-30.4,180.3-34.8,272.1-1.1c0,2.3,0.1,4.6,0.1,6.9C356.5,1539.8,264,1551.1,176.7,1586.1z M145.5,1545.7
			c-0.1-119,2.6-240-8.1-358.6c98.7-62.6,208.8-58.2,311.9-11.7c0,1.4,0.5,2.7,1.4,3.8c-5.2,57.3-0.9,116.9-0.9,174.3
			c0,59.1-1.8,118.7,2,177.7C354.4,1495.8,238.4,1496.5,145.5,1545.7z M463.4,1555.6c-0.4-3.5-0.9-7.1-1.3-10.6
			c0.4-0.7,0.7-1.4,0.8-2.2c91.3-26.9,178.7-24.9,266.2,7.9c-0.1,0.6-0.3,1.1-0.3,1.8c0.3,6.8,0.7,13.6,1.2,20.4
			C649.6,1533.7,549.8,1539.2,463.4,1555.6z M752.4,1543.5c-88.3-42.5-197.4-48.5-289.2-13.9c3.6-58.5,1.9-117.5,1.9-176
			c0-58,4.5-118.3-1-176.1c38.3-28.1,93.7-25.2,139-26.4c53-1.4,106.7,7.6,149.3,41c1,0.7,1.9,1.2,2.9,1.6
			C745.9,1308.9,751.2,1427.8,752.4,1543.5z"/>
	</g>
	<g>
		<path fill="#F99F1C" d="M1796.1,1371.3c-0.6-13.8-1.1-27.5-1.8-41.3c-0.6-3.3-10.3-2.8-10.4,1.6c0.7,28.6-0.5,57.9,3.1,86.2
			c3,5.7,12.1,2.7,10.7-2.8c-0.1-2.5-0.6-18.4-0.7-21C1796.7,1386.5,1796.4,1378.9,1796.1,1371.3z"/>
		<path fill="#F99F1C" d="M1980.6,1371.3c-0.6-13.8-1.1-27.5-1.8-41.3c-0.6-3.3-10.3-2.8-10.4,1.6c0.7,28.6-0.5,57.9,3.1,86.2
			c3,5.7,12.1,2.7,10.7-2.8c-0.1-2.5-0.6-18.4-0.7-21C1981.2,1386.5,1980.9,1378.9,1980.6,1371.3z"/>
		<path fill="#F99F1C" d="M1892.2,1371.3c-0.6-13.8-1.1-27.5-1.8-41.3c-0.6-3.3-10.3-2.8-10.4,1.6c0.7,28.6-0.5,57.9,3.1,86.2
			c3,5.7,12.1,2.7,10.7-2.8c-0.1-2.5-0.6-18.4-0.7-21C1892.8,1386.5,1892.5,1378.9,1892.2,1371.3z"/>
		<path fill="#F99F1C" d="M1757.6,1270.7c-0.1-2.5-0.6-18.4-0.7-21c-0.3-7.6-0.6-15.2-0.9-22.8c-0.6-13.8-1.1-27.5-1.8-41.3
			c-0.6-3.3-10.3-2.8-10.4,1.6c0.7,28.6-0.5,57.9,3.1,86.2C1749.9,1279.2,1759,1276.3,1757.6,1270.7z"/>
		<path fill="#F99F1C" d="M1708.1,1270.7c-0.1-2.5-0.6-18.4-0.7-21c-0.3-7.6-0.6-15.2-0.9-22.8c-0.6-13.8-1.1-27.5-1.8-41.3
			c-0.6-3.3-10.3-2.8-10.4,1.6c0.7,28.6-0.5,57.9,3.1,86.2C1700.4,1279.2,1709.4,1276.3,1708.1,1270.7z"/>
		<path fill="#F99F1C" d="M1804.2,1270.7c-0.1-2.5-0.6-18.4-0.7-21c-0.3-7.6-0.6-15.2-0.9-22.8c-0.6-13.8-1.1-27.5-1.8-41.3
			c-0.6-3.3-10.3-2.8-10.4,1.6c0.7,28.6-0.5,57.9,3.1,86.2C1796.4,1279.2,1805.5,1276.3,1804.2,1270.7z"/>
		<path fill="#F37B78" d="M2103.6,1506.6c0.7-44.6,0.5-89.2,0.4-133.8c-0.3-85.3-0.8-170.5-1.3-255.7
			c-0.4-62.7-93.8-52.7-136.6-54.1c-38.7-1.3-77.7,0.1-116.4,2.2c-0.9,0.7-2.1,1.2-3.7,1.1c-2.7-0.2-5.3-0.3-8-0.4
			c-2.7,0.2-5.3,0.3-8,0.4c-1.6,0.1-2.8-0.4-3.7-1.1c-38.7-2.1-77.7-3.4-116.4-2.2c-42.8,1.4-136.2-8.6-136.6,54.1
			c-0.5,85.3-1,170.5-1.3,255.7c-0.2,44.6-0.3,89.2,0.4,133.8c0.6,38-4.8,84.4,5.8,121.2c15.5,54,99.4,36.8,143.1,36.4
			c35.9-0.4,71.8-0.7,107.7-1c0.3,0,0.5-0.2,0.9-0.2c2.7,0,5.4,0.1,8.2,0.1c2.7,0,5.4-0.1,8.2-0.1c0.3,0,0.6,0.1,0.9,0.2
			c35.9,0.3,71.8,0.7,107.7,1c43.6,0.4,127.6,17.6,143.1-36.4C2108.4,1591.1,2103,1544.6,2103.6,1506.6z M2042.2,1605.9
			c-0.2,0.2-0.5,0.3-0.7,0.5c-0.2,0.1-0.4,0.3-0.7,0.4c-1.9,1-4.3,1.2-6.4,0.4c-133.4-1-267,4.7-400.3,2.3c-2.3,0-3.8-1.1-4.7-2.6
			c-2.1-1-3.7-2.9-3.7-5.9c-0.7-156.1-5.3-313.2,0.3-469.2c0.1-2.6,1.6-4.3,3.4-5.1c1-1.4,2.5-2.4,4.7-2.5
			c132.6-6.5,266.9-3.1,399.6-2.6c4.1,0,6.2,2.9,6.6,6c1.1,0.9,1.8,2.3,1.8,4.2c3.4,156-0.6,312.3,2.1,468.4
			C2044.5,1602.4,2043.8,1604.6,2042.2,1605.9z"/>
		<path fill="#F99F1C" d="M1876.4,1510.6c0-0.4-0.1-0.7,0-1.1c0-0.5,0-0.9-0.1-1.4c-0.6-13.8-1.1-27.5-1.8-41.3
			c-0.6-3.3-10.3-2.8-10.4,1.6c0.7,28.6-0.5,57.9,3.1,86.2c3,5.7,12.1,2.7,10.7-2.8c-0.1-2.5-0.6-18.4-0.7-21
			C1876.9,1524.1,1876.6,1517.3,1876.4,1510.6z"/>
		<path fill="#F99F1C" d="M1717.7,1508c-0.6-13.8-1.1-27.5-1.8-41.3c-0.6-3.3-10.3-2.8-10.4,1.6c0.7,28.6-0.5,57.9,3.1,86.2
			c3,5.7,12.1,2.7,10.7-2.8c-0.1-2.5-0.6-18.4-0.7-21C1718.3,1523.2,1718,1515.6,1717.7,1508z"/>
		<path fill="#F99F1C" d="M1779.6,1508c-0.6-13.8-1.1-27.5-1.8-41.3c-0.6-3.3-10.3-2.8-10.4,1.6c0.7,28.6-0.5,57.9,3.1,86.2
			c3,5.7,12.1,2.7,10.7-2.8c-0.1-2.5-0.6-18.4-0.7-21C1780.2,1523.2,1779.9,1515.6,1779.6,1508z"/>
		<path fill="#81514F" d="M2106.9,1071.1c-28.5-25.3-78-21.6-113.5-23.1c-50.3-2.1-102.4,1.2-153.4,2.2c-52.5,1-104.9-4.4-157.3-2.2
			c-35.5,1.5-85-2.3-113.5,23.1c-24.6,21.9-12.1,85.4-12.1,113.3c0,58.3-0.3,116.7-0.5,175c-0.2,53.5-0.3,107.1,0.6,160.6
			c0.7,42.6-4.3,91.9,13.5,131.8c15.4,34.7,65.3,27.9,95,27.5c114.9-1.4,229.7-1.4,344.6,0c29.7,0.4,79.6,7.2,95-27.5
			c17.7-39.9,12.8-89.2,13.5-131.8c0.9-53.5,0.8-107.1,0.6-160.6c-0.2-58.3-0.5-116.7-0.5-175
			C2119,1156.5,2131.5,1093,2106.9,1071.1z M2097.9,1627.8c-15.5,54-99.4,36.8-143.1,36.4c-35.9-0.4-71.8-0.7-107.7-1
			c-0.3,0-0.5-0.2-0.9-0.2c-2.7,0-5.4,0.1-8.2,0.1c-2.7,0-5.4-0.1-8.2-0.1c-0.3,0-0.6,0.1-0.9,0.2c-35.9,0.3-71.8,0.7-107.7,1
			c-43.6,0.4-127.6,17.6-143.1-36.4c-10.5-36.8-5.2-83.2-5.8-121.2c-0.7-44.6-0.5-89.2-0.4-133.8c0.3-85.3,0.8-170.5,1.3-255.7
			c0.4-62.7,93.8-52.7,136.6-54.1c38.7-1.3,77.7,0.1,116.4,2.2c0.9,0.7,2.1,1.2,3.7,1.1c2.7-0.2,5.3-0.3,8-0.4
			c2.7,0.2,5.3,0.3,8,0.4c1.6,0.1,2.8-0.4,3.7-1.1c38.7-2.1,77.7-3.4,116.4-2.2c42.8,1.4,136.2-8.6,136.6,54.1
			c0.5,85.3,1,170.5,1.3,255.7c0.2,44.6,0.3,89.2-0.4,133.8C2103,1544.6,2108.4,1591.1,2097.9,1627.8z"/>
		<path fill="#81514F" d="M2042.1,1131.8c0-1.9-0.8-3.3-1.8-4.2c-0.4-3.1-2.6-6-6.6-6c-132.8-0.6-267-3.9-399.6,2.6
			c-2.2,0.1-3.7,1.2-4.7,2.5c-1.8,0.8-3.3,2.5-3.4,5.1c-5.5,156-1,313.1-0.3,469.2c0,3,1.6,4.9,3.7,5.9c0.9,1.5,2.4,2.6,4.7,2.6
			c133.3,2.4,266.9-3.3,400.3-2.3c2.1,0.8,4.5,0.6,6.4-0.4c0.3-0.1,0.5-0.3,0.7-0.4c0.2-0.2,0.5-0.3,0.7-0.5c1.6-1.4,2.3-3.6,2-5.7
			C2041.5,1444.2,2045.4,1287.9,2042.1,1131.8z M1638.9,1377.1c44.4,4.7,89.3-0.5,133.8,0.7c0.6,10.8,1.1,21.7,1.7,32.5
			c0.7,13.8,2.4,20.4,17.7,20.5c13,0.1,17-10.6,17.1-21.6c0-10.9-0.3-21.8-0.8-32.8c8.6-1.1,19.8,0.6,27.6,0.5
			c10.8-0.1,21.8-0.1,32.6-0.9c0.6,11.4,1.2,22.8,1.8,34.2c0.7,13.8,2.4,20.4,17.7,20.5c13,0.1,17-10.6,17.1-21.6
			c0-11.5-0.4-22.9-0.9-34.4c17.5,0.4,35.1-0.5,52.5-0.8c0.6,12.1,1.3,24.2,1.9,36.3c0.7,13.8,2.4,20.4,17.7,20.5
			c13,0.1,17-10.6,17.1-21.6c0-11.8-0.4-23.6-0.9-35.4c4.3,0.5,8.6,0.4,12.8,0.6c7.3,0.3,15.2,1.3,22.4-0.6
			c0.3,42.5,0.8,85,1.2,127.5c-46.4-2.2-94.5-0.5-141,2c-0.6-13.6-1.4-27.2-1.7-40.8c-0.1-3.9-3.2-5.9-6.3-5.9
			c-0.1,0-0.1-0.1-0.2-0.1c-8.8-1.4-15.6-1.3-24.3,0.8c-2.8,0.7-4.8,3.5-4.8,6.3c0.3,14.4,0.9,28.8,1.6,43.1
			c-19.4-1.7-41.4-1.7-60.7,1.4c-0.7-15.2-1.5-30.4-1.9-45.6c-0.1-3.9-3.2-5.9-6.3-5.9c-0.1,0-0.1-0.1-0.2-0.1
			c-8.8-1.4-15.6-1.3-24.3,0.8c-2.8,0.7-4.8,3.5-4.8,6.3c0.3,14.5,0.9,29,1.6,43.4c-4.9,0-9.8,0.3-14.7,0.4
			c-3.7,0.1-7.5,0.1-11.2,0.5c-0.7-15.2-1.5-30.3-1.9-45.4c-0.1-3.9-3.2-5.9-6.3-5.9c-0.1,0-0.1-0.1-0.2-0.1
			c-8.8-1.4-15.6-1.3-24.3,0.8c-2.8,0.7-4.8,3.5-4.8,6.3c0.3,14.8,0.9,29.6,1.6,44.4c-17.6-1.9-37.6-0.8-55.1,1.8
			C1638.7,1465.6,1638.8,1421.3,1638.9,1377.1z M1639,1241.4c14.5,0.8,30-1.1,44.4-1.5c0.5,8.7,0.9,17.4,1.4,26.1
			c0.7,13.8,2.4,20.4,17.7,20.5c13,0.1,17-10.6,17.1-21.6c0-8.7-0.2-17.4-0.5-26.1c2.4,0.1,4.8,0.2,7.2,0.1c2.2,0,4.4,0,6.5-0.5
			c0.5,9.2,1,18.3,1.5,27.5c0.7,13.8,2.4,20.4,17.7,20.5c13,0.1,17-10.6,17.1-21.6c0-9-0.2-18.1-0.6-27.1c3.6,0.3,7.3,0.2,10.8-0.4
			c0.5,9.5,1,19,1.5,28.6c0.7,13.8,2.4,20.4,17.7,20.5c13,0.1,17-10.6,17.1-21.6c0-9.6-0.3-19.2-0.6-28.8
			c71-3.8,142.1,1.2,213.1-3.3c-0.5,43.3-0.4,86.6-0.1,129.9c-6.1-1.9-12.8-1.5-19.1-1.6c-5.3-0.1-11.1-0.6-16.5-0.1
			c-0.6-11.8-1.1-23.5-1.5-35.3c-0.1-3.9-3.2-5.9-6.3-5.9c-0.1,0-0.1-0.1-0.2-0.1c-8.8-1.4-15.6-1.3-24.3,0.8
			c-2.8,0.7-4.8,3.5-4.8,6.3c0.2,11.8,0.7,23.6,1.2,35.4c-17.4-1-35.1-1.3-52.5,0.6c-0.6-12.4-1.2-24.7-1.5-37.1
			c-0.1-3.9-3.2-5.9-6.3-5.9c-0.1,0-0.1-0.1-0.2-0.1c-8.8-1.4-15.6-1.3-24.3,0.8c-2.8,0.7-4.8,3.5-4.8,6.3
			c0.2,12.3,0.7,24.6,1.3,36.9c-12.4-0.3-25,0.4-37.4,0.8c-6,0.2-15.2-1-22.7,0c-0.6-13-1.3-25.9-1.6-38.8c-0.1-3.9-3.2-5.9-6.3-5.9
			c-0.1,0-0.1-0.1-0.2-0.1c-8.8-1.4-15.6-1.3-24.3,0.8c-2.8,0.7-4.8,3.5-4.8,6.3c0.3,13,0.8,26,1.4,39c-44.3-3.5-88.8,2.3-133.2-0.2
			C1639.1,1324.2,1639.2,1282.8,1639,1241.4z M1694.3,1187.3c0.1-4.4,9.8-4.9,10.4-1.6c0.7,13.8,1.2,27.5,1.8,41.3
			c0.3,7.6,0.6,15.2,0.9,22.8c0.1,2.5,0.6,18.4,0.7,21c1.3,5.6-7.7,8.5-10.7,2.8C1693.8,1245.2,1694.9,1215.8,1694.3,1187.3z
			 M1743.8,1187.3c0.1-4.4,9.8-4.9,10.4-1.6c0.7,13.8,1.2,27.5,1.8,41.3c0.3,7.6,0.6,15.2,0.9,22.8c0.1,2.5,0.6,18.4,0.7,21
			c1.3,5.6-7.7,8.5-10.7,2.8C1743.3,1245.2,1744.4,1215.8,1743.8,1187.3z M1790.3,1187.3c0.1-4.4,9.8-4.9,10.4-1.6
			c0.7,13.8,1.2,27.5,1.8,41.3c0.3,7.6,0.6,15.2,0.9,22.8c0.1,2.5,0.6,18.4,0.7,21c1.3,5.6-7.7,8.5-10.7,2.8
			C1789.8,1245.2,1791,1215.8,1790.3,1187.3z M1971.5,1417.9c-3.6-28.3-2.4-57.7-3.1-86.2c0.1-4.4,9.8-4.9,10.4-1.6
			c0.7,13.8,1.2,27.5,1.8,41.3c0.3,7.6,0.6,15.2,0.9,22.8c0.1,2.5,0.6,18.4,0.7,21C1983.6,1420.6,1974.5,1423.6,1971.5,1417.9z
			 M1883.1,1417.9c-3.6-28.3-2.4-57.7-3.1-86.2c0.1-4.4,9.8-4.9,10.4-1.6c0.7,13.8,1.2,27.5,1.8,41.3c0.3,7.6,0.6,15.2,0.9,22.8
			c0.1,2.5,0.6,18.4,0.7,21C1895.2,1420.6,1886.1,1423.6,1883.1,1417.9z M1787,1417.9c-3.6-28.3-2.4-57.7-3.1-86.2
			c0.1-4.4,9.8-4.9,10.4-1.6c0.7,13.8,1.2,27.5,1.8,41.3c0.3,7.6,0.6,15.2,0.9,22.8c0.1,2.5,0.6,18.4,0.7,21
			C1799.1,1420.6,1790,1423.6,1787,1417.9z M1867.2,1554.6c-3.6-28.3-2.4-57.7-3.1-86.2c0.1-4.4,9.8-4.9,10.4-1.6
			c0.7,13.8,1.2,27.5,1.8,41.3c0,0.5,0,0.9,0.1,1.4c0,0.4,0,0.7,0,1.1c0.3,6.8,0.5,13.5,0.8,20.3c0.1,2.5,0.6,18.4,0.7,21
			C1879.3,1557.4,1870.2,1560.3,1867.2,1554.6z M1770.5,1554.6c-3.6-28.3-2.4-57.7-3.1-86.2c0.1-4.4,9.8-4.9,10.4-1.6
			c0.7,13.8,1.2,27.5,1.8,41.3c0.3,7.6,0.6,15.2,0.9,22.8c0.1,2.5,0.6,18.4,0.7,21C1782.6,1557.4,1773.5,1560.3,1770.5,1554.6z
			 M1708.6,1554.6c-3.6-28.3-2.4-57.7-3.1-86.2c0.1-4.4,9.8-4.9,10.4-1.6c0.7,13.8,1.2,27.5,1.8,41.3c0.3,7.6,0.6,15.2,0.9,22.8
			c0.1,2.5,0.6,18.4,0.7,21C1720.7,1557.4,1711.6,1560.3,1708.6,1554.6z M1639.7,1597.6c-0.4-25.4-0.6-50.8-0.8-76.3
			c10,0.5,20.1-0.2,30.1-0.5c8.4-0.3,17.1-0.4,25.5-1.7c0.5,9.3,1,18.6,1.5,27.9c0.7,13.8,2.4,20.4,17.7,20.5
			c13,0.1,17-10.6,17.1-21.6c0-8.6-0.2-17.1-0.5-25.7c3.5,0.2,7.1-0.1,10.7-0.2c5.1-0.2,10.3-0.4,15.4-1.2c0.5,9.4,1,18.7,1.5,28.1
			c0.7,13.8,2.4,20.4,17.7,20.5c13,0.1,17-10.6,17.1-21.6c0-8.5-0.2-17.1-0.5-25.7c19.7,1.8,41.3,0.6,60.8-1.9
			c0.5,9.5,1,19.1,1.5,28.6c0.7,13.8,2.4,20.4,17.7,20.5c13,0.1,17-10.6,17.1-21.6c0-10-0.3-20.1-0.7-30.1
			c46.4,0.5,94.4,0.1,140.6-4.2c0.3,27.7,0.6,55.4,0.7,83.1C1900.8,1591.1,1768.7,1587.5,1639.7,1597.6z M2028.3,1221.1
			c-71.2,2.8-142.5-1.1-213.7,2c-0.6-13.9-1.4-27.9-1.8-41.8c-0.1-3.9-3.2-5.9-6.3-5.9c-0.1,0-0.1-0.1-0.2-0.1
			c-8.8-1.4-15.6-1.3-24.3,0.8c-2.8,0.7-4.8,3.5-4.8,6.3c0.3,13.7,0.8,27.4,1.5,41.1c-3.4-0.6-7.5-0.4-10.7-0.1
			c-0.6-14-1.4-28.1-1.8-42.1c-0.1-3.9-3.2-5.9-6.3-5.9c-0.1,0-0.1-0.1-0.2-0.1c-8.8-1.4-15.6-1.3-24.3,0.8
			c-2.8,0.7-4.8,3.5-4.8,6.3c0.3,13.9,0.8,27.8,1.5,41.8c-1.3-0.1-2.7-0.1-4.3,0.1c-3.1,0.3-6.2,0.5-9.2,0.7
			c-0.7-14.6-1.4-29.2-1.8-43.7c-0.1-3.9-3.2-5.9-6.3-5.9c-0.1,0-0.1-0.1-0.2-0.1c-8.8-1.4-15.6-1.3-24.3,0.8
			c-2.8,0.7-4.8,3.5-4.8,6.3c0.3,14.4,0.9,28.8,1.6,43.3c-13.9-0.8-29.8-1.5-43.8,1.2c-0.2-30.2-0.5-60.3-1.1-90.5
			c130.3,5.1,262.1,1,392.5-0.7C2029.2,1164.2,2028.7,1192.7,2028.3,1221.1z"/>
	</g>
</g>
</svg>
