<?xml version="1.0" encoding="utf-8"?>
<!-- Generator: Adobe Illustrator 22.0.1, SVG Export Plug-In . SVG Version: 6.00 Build 0)  -->
<svg version="1.1" xmlns="http://www.w3.org/2000/svg" xmlns:xlink="http://www.w3.org/1999/xlink" x="0px" y="0px"
	 viewBox="0 0 2272 1872" style="enable-background:new 0 0 2272 1872;" xml:space="preserve">
<style type="text/css">
	.st0{fill:#FFFFFF;}
	.st1{fill:#59416B;}
	.st2{fill:#5A426C;}
	.st3{fill:#5A426D;}
	.st4{fill:#5B436E;}
	.st5{fill:#5C436F;}
	.st6{fill:#5D4470;}
	.st7{fill:#5D4471;}
	.st8{fill:#5E4572;}
	.st9{fill:#5F4573;}
	.st10{fill:#5F4674;}
	.st11{fill:#604675;}
	.st12{fill:#614776;}
	.st13{fill:#624877;}
	.st14{fill:#624878;}
	.st15{fill:#634979;}
	.st16{fill:#64497A;}
	.st17{fill:#644A7A;}
	.st18{fill:#654A7B;}
	.st19{fill:#664B7C;}
	.st20{fill:#664B7D;}
	.st21{fill:#674C7E;}
	.st22{fill:#684D7F;}
	.st23{fill:#694D80;}
	.st24{fill:#694E81;}
	.st25{fill:#6A4E82;}
	.st26{fill:#6B4F83;}
	.st27{fill:#6B4F84;}
	.st28{fill:#6C5085;}
	.st29{fill:#6D5086;}
	.st30{fill:#6E5187;}
	.st31{fill:#6E5188;}
	.st32{fill:#6F5289;}
	.st33{fill:#77BEED;}
	.st34{fill:#B75590;}
	.st35{fill:#9E578F;}
	.st36{fill:#B769A3;}
	.st37{fill:#D87DBC;}
	.st38{fill:#EF92D7;}
	.st39{fill:#CE5FA6;}
	.st40{fill:#785699;}
	.st41{fill:#8966B2;}
	.st42{fill:#9773C9;}
	.st43{fill:#A04A81;}
	.st44{fill:#F47ACF;}
	.st45{fill:#ACD6F4;}
	.st46{opacity:0.62;fill:#B6E3FF;}
	.st47{fill:#FAFBFC;}
	.st48{fill:#A4C2DB;}
	.st49{fill:#80A1B7;}
	.st50{fill:#B8DCF4;}
	.st51{fill:#553E6B;}
	.st52{fill:#627989;}
</style>
<g id="Background">
	<g id="Layer_1_1_">
	</g>
	<rect class="st0" width="2272" height="1872"/>
	<g>
		<path class="st1" d="M1582.3,165.7c-138.1,102.2-309.9,157.9-481.6,156.3c-119.1-1.1-237.1-29-356.2-26.7
			c-254.6,4.9-501,159.2-616.4,386.2s-95,517,51.1,725.6c188.4,269,539.3,374,867.3,390.1c65.5,3.2,133.3,3.3,193.9-21.7
			c104.8-43.2,165.9-150,245.8-230.5c91.6-92.2,210.5-151.2,325.4-212.1c114.8-61,230.9-128.2,310.3-231.1
			c79.4-102.9,114.3-250.5,52.6-364.9c-46.6-86.4-140.9-143.9-171.2-237.3c-23-70.9-4-148.4-13.4-222.4
			c-12.7-100.6-85.6-188.6-177.2-229.2C1669.7-15.6,1681.6,92.2,1582.3,165.7z"/>
		<g>
			<path class="st1" d="M1046.5,1797.3c65.5,3.2,133.3,3.3,193.9-21.7c0,0,0.1,0,0.1,0H843.6C911.1,1786.9,979.3,1794,1046.5,1797.3
				z"/>
			<path class="st2" d="M843.6,1775.5h396.9c32.5-13.4,60.9-33,86.8-56H620.6C692.6,1744.3,767.7,1762.7,843.6,1775.5z"/>
			<path class="st3" d="M620.6,1719.5h706.8c19.4-17.1,37.4-36.2,54.9-56h-896C529.4,1685,574.3,1703.6,620.6,1719.5z"/>
			<path class="st4" d="M486.3,1663.6h896c16.2-18.3,31.9-37.2,47.8-56H388.6C419.8,1628.1,452.5,1646.7,486.3,1663.6z"/>
			<path class="st5" d="M388.6,1607.6H1430c16.2-19.2,32.6-38.1,49.8-56h-1167C336.9,1571.7,362.3,1590.3,388.6,1607.6z"/>
			<path class="st6" d="M312.8,1551.6h1167c2.1-2.2,4.2-4.4,6.4-6.5c17.5-17.6,36-34,55.3-49.5H252.4
				C271.6,1515.4,291.7,1534,312.8,1551.6z"/>
			<path class="st7" d="M252.4,1495.6h1289.1c25.1-20.1,51.6-38.6,78.9-56h-1417C218.9,1459.2,235.2,1477.9,252.4,1495.6z"/>
			<path class="st8" d="M179.2,1407.2c7.8,11.1,15.9,21.9,24.2,32.5h1417c31.1-19.8,63.3-38.2,95.9-56H163.6
				C168.6,1391.6,173.8,1399.4,179.2,1407.2z"/>
			<path class="st9" d="M163.6,1383.6h1552.8c31.6-17.2,63.6-33.9,95.3-50.7c3.3-1.8,6.6-3.5,9.9-5.3h-1690
				C141.3,1346.8,152,1365.5,163.6,1383.6z"/>
			<path class="st10" d="M131.5,1327.7h1690c33.4-17.8,66.7-36.2,99.2-56H106.1C113.7,1290.7,122.2,1309.4,131.5,1327.7z"/>
			<path class="st11" d="M106.1,1271.7h1814.7c28.7-17.5,56.7-36,83.3-56H86.2C92.1,1234.6,98.7,1253.3,106.1,1271.7z"/>
			<path class="st12" d="M86.2,1215.7h1917.8c23.1-17.4,45.2-35.9,65.9-56H71.4C75.6,1178.6,80.5,1197.3,86.2,1215.7z"/>
			<path class="st13" d="M71.4,1159.7H2070c18-17.5,34.9-36,50.5-56H61.2C63.9,1122.5,67.3,1141.2,71.4,1159.7z"/>
			<path class="st14" d="M61.2,1103.7h2059.2c0.5-0.6,1-1.3,1.5-1.9c13.1-16.9,24.9-35.1,35.3-54.1H55.4
				C56.6,1066.5,58.6,1085.2,61.2,1103.7z"/>
			<path class="st15" d="M55.4,1047.8h2101.9c9.9-18,18.4-36.7,25.5-56H53.8C53.6,1010.4,54.2,1029.1,55.4,1047.8z"/>
			<path class="st16" d="M53.8,991.8h2129c6.8-18.3,12.2-37.1,16.1-56H56.5C54.9,954.4,54,973.1,53.8,991.8z"/>
			<path class="st17" d="M56.5,935.8h2142.4c3.8-18.6,6.2-37.3,6.9-56H63.6C60.5,898.4,58.2,917,56.5,935.8z"/>
			<path class="st18" d="M63.6,879.8h2142.2c0.8-18.8-0.1-37.6-2.8-56H75.2C70.6,842.3,66.7,861,63.6,879.8z"/>
			<path class="st19" d="M75.2,823.8H2203c-2.8-19.1-7.5-37.8-14.4-56H91.7C85.4,786.3,79.9,804.9,75.2,823.8z"/>
			<path class="st20" d="M91.7,767.8h2096.9c-4-10.5-8.6-20.8-14.1-30.9c-4.7-8.6-9.8-17-15.3-25.1H113.7
				C105.5,730.2,98.2,748.9,91.7,767.8z"/>
			<path class="st21" d="M128.1,681.5c-5.1,10-9.9,20.1-14.4,30.3h2045.6c-13.3-19.7-28.8-38-44.8-56H141.9
				C137.2,664.3,132.5,672.9,128.1,681.5z"/>
			<path class="st22" d="M141.9,655.9h1972.6c-16.7-18.7-34-37.1-50.2-56h-1887C164.7,618,152.8,636.6,141.9,655.9z"/>
			<path class="st23" d="M177.4,599.9h1887c-15.2-17.8-29.3-36.2-40.9-56H221.3C205.7,561.8,191,580.5,177.4,599.9z"/>
			<path class="st24" d="M221.3,543.9h1802.2c-8.2-13.9-15-28.6-20.1-44.3c-1.3-3.9-2.4-7.8-3.4-11.7H275.7
				C256.6,505.6,238.4,524.3,221.3,543.9z"/>
			<path class="st25" d="M275.7,487.9H2000c-4.8-18.3-7-37-8-56H344.2C320.3,449.2,297.4,467.9,275.7,487.9z"/>
			<path class="st26" d="M344.2,432H1992c-0.9-18.5-0.6-37.2-0.1-56H435C403.5,392.4,373.1,411.1,344.2,432z"/>
			<path class="st27" d="M1100.7,322c-17.1-0.2-34.2-0.9-51.3-2H576.9c-49.1,13.6-96.7,32.4-141.9,56h1556.9
				c0.5-18.7,1.1-37.4,0.9-56h-828.6C1143,321.5,1121.8,322.2,1100.7,322z"/>
			<path class="st28" d="M1164.1,320h828.6c-0.2-14.3-1-28.6-2.7-42.7c-0.6-4.4-1.2-8.9-2-13.2h-582.1
				C1328.8,295,1246.9,314,1164.1,320z"/>
			<path class="st28" d="M744.5,295.3c-56.7,1.1-113.1,9.6-167.6,24.7h472.5C947.6,313.5,846.5,293.4,744.5,295.3z"/>
			<path class="st29" d="M1405.9,264H1988c-3.5-19.3-9.2-38-16.7-56h-452.4C1482.7,229.6,1444.9,248.3,1405.9,264z"/>
			<path class="st30" d="M1582.3,165.7c-20.5,15.1-41.7,29.2-63.5,42.3h452.4c-8.3-19.7-18.9-38.5-31.4-56h-340.7
				C1593.9,156.7,1588.3,161.3,1582.3,165.7z"/>
			<path class="st31" d="M1599.2,152h340.7c-14.7-20.6-32-39.5-51.3-56h-239.9C1635.2,114.1,1619.9,133.7,1599.2,152z"/>
			<path class="st32" d="M1812.8,48c-100.3-44.6-124.5-4.9-164.2,48.1h239.9C1865.8,76.5,1840.1,60.1,1812.8,48z"/>
		</g>
		<g>
			<path class="st23" d="M1547.5,1448.9c32.5-39.3,64.4-83.2,68.4-134c8.5-108.3-106.7-182.3-150.6-281.7
				c-29.1-66.1-25.1-143.2-2.1-211.7c23-68.5,63.6-129.5,106.8-187.4c115.1-154.3,252.4-292.7,409.5-403.9
				c-11.4-35.4-30.2-68.3-54.2-97c-170.7,82.1-316.4,223.5-447,365.2c-177.8,192.9-354.7,402.6-598,500.8
				c-211.9,85.5-461,73.1-663.3-32.9c-59.5-31.2-119.2-77.3-143-137.4C40.1,968.5,49.1,1118.7,99,1253.4
				c211.7,84.4,444.5,116,671.1,90c36.6-4.2,73.7-9.9,110.2-4.5c36.5,5.4,73.2,23.8,90.4,56.5c9,17,12,36.6,12.8,55.9
				c3.4,88.6-39.4,174.3-99.7,239.3c-26.3,28.4-55.8,53.4-87,76.3c82.8,16.6,167,26.4,249.9,30.4c36.3,1.8,73.2,2.6,109.2-1.3
				C1303.2,1701.4,1435.9,1584,1547.5,1448.9z"/>
		</g>
		<circle class="st33" cx="509.2" cy="662.6" r="213.7"/>
		<circle class="st34" cx="1971.2" cy="930.2" r="94.5"/>
		<g>
			<circle class="st0" cx="382.4" cy="1231.9" r="11.8"/>
			<circle class="st0" cx="620.6" cy="1187.7" r="11.8"/>
			<circle class="st0" cx="446.8" cy="963.8" r="11.8"/>
			<g>
				<g>
					<path class="st0" d="M973.4,1190.6c-1.4,0-2.8,0-4.2,0.1c-1.7,0.1-3.2,0.8-4.7,1.5c-3.9,1.5-4,6.5,0,8.1c1.5,0.6,3,1.3,4.7,1.5
						c1.4,0.1,2.8,0.1,4.2,0.1c2.9,0.1,5.7-2.6,5.6-5.6C978.9,1193.2,976.6,1190.5,973.4,1190.6L973.4,1190.6z"/>
				</g>
				<g>
					<path class="st0" d="M797.8,907c4.5,0,4.5-7,0-7C793.3,900,793.3,907,797.8,907L797.8,907z"/>
				</g>
				<g>
					<path class="st0" d="M243.7,856.5c4.8,0,4.8-7.5,0-7.5C238.8,849,238.8,856.5,243.7,856.5L243.7,856.5z"/>
				</g>
				<g>
					<path class="st0" d="M462.2,535.3c3.3,0,3.3-5.1,0-5.1C458.9,530.2,458.9,535.3,462.2,535.3L462.2,535.3z"/>
				</g>
				<g>
					<path class="st0" d="M680.7,510.9c7.1,0,7.1-11,0-11C673.7,500,673.7,510.9,680.7,510.9L680.7,510.9z"/>
				</g>
				<g>
					<path class="st0" d="M727.6,681.3c5.4,0,5.4-8.4,0-8.4C722.2,673,722.2,681.3,727.6,681.3L727.6,681.3z"/>
				</g>
				<g>
					<path class="st0" d="M666.5,801.2c-1.5,0.6-2.9,0.8-4.5,1.1c-0.9,0.4-1.9,0.8-2.8,1.2c-1.4,0.7-2.5,1.8-3.3,3.1
						c-1.5,2-2.7,4.6-2.6,7.2c0.1,2.1,0.6,4.1,1.6,6c1.2,2.3,4.5,5,7.1,5.5c1.6,0.3,3,0.5,4.5,1.1c4.1,1.6,9.8-0.2,12.7-3.4
						c2.3-2.6,3.8-5.7,3.8-9.2c0-3.3-1.5-6.9-3.8-9.2C676.1,801.5,670.7,799.5,666.5,801.2L666.5,801.2z"/>
				</g>
				<g>
					<path class="st0" d="M723.7,984.5c-2.6,0.1-5.2,0.2-7.8,0.3c-2.5,0.1-4.6,2-4.6,4.6c0,2.6,2.1,4.5,4.6,4.6
						c2.6,0.1,5.2,0.2,7.8,0.3c2.6,0.1,5-2.3,4.9-4.9C728.4,986.8,726.4,984.4,723.7,984.5L723.7,984.5z"/>
				</g>
				<g>
					<path class="st0" d="M239.8,1144.1c3.3,0,3.3-5.1,0-5.1C236.5,1139,236.5,1144.1,239.8,1144.1L239.8,1144.1z"/>
				</g>
				<g>
					<path class="st0" d="M1726.6,930.2c4.3,0,4.3-6.6,0-6.6C1722.3,923.6,1722.3,930.2,1726.6,930.2L1726.6,930.2z"/>
				</g>
				<g>
					<path class="st0" d="M1812.4,754.3c8.9,0,8.9-13.8,0-13.8C1803.6,740.5,1803.6,754.3,1812.4,754.3L1812.4,754.3z"/>
				</g>
				<g>
					<path class="st0" d="M2008.2,904.8c-3.9-5.2-7.8-10.4-11.7-15.6c-1.7-2.3-4.6-3.4-7.2-1.9c-2.2,1.3-3.6,4.9-1.9,7.2
						c3.9,5.2,7.8,10.4,11.7,15.6c1.7,2.3,4.6,3.4,7.2,1.9C2008.6,910.7,2009.9,907,2008.2,904.8L2008.2,904.8z"/>
				</g>
				<g>
					<path class="st0" d="M1570.5,668.3c3.7,0,3.7-5.8,0-5.8C1566.8,662.6,1566.8,668.3,1570.5,668.3L1570.5,668.3z"/>
				</g>
				<g>
					<path class="st0" d="M1043.7,574.6c3.6,0,3.6-5.6,0-5.6C1040,569,1040,574.6,1043.7,574.6L1043.7,574.6z"/>
				</g>
				<g>
					<path class="st0" d="M1172.4,968.6c3.4,0,3.4-5.3,0-5.3C1169,963.3,1169,968.6,1172.4,968.6L1172.4,968.6z"/>
				</g>
				<g>
					<path class="st0" d="M1301.2,1179.9c4.1,0,4.1-6.4,0-6.4C1297.1,1173.5,1297.1,1179.9,1301.2,1179.9L1301.2,1179.9z"/>
				</g>
				<g>
					<path class="st0" d="M1024.1,1526.3c3,0,3-4.7,0-4.7C1021.1,1521.7,1021.1,1526.3,1024.1,1526.3L1024.1,1526.3z"/>
				</g>
				<g>
					<path class="st0" d="M555.9,1543.7c5.2,0,5.3-8.1,0-8.1C550.6,1535.5,550.6,1543.7,555.9,1543.7L555.9,1543.7z"/>
				</g>
				<g>
					<path class="st0" d="M415.9,1477.2c0.1-0.8,0.1-1.6,0.2-2.4c-1.1,1.5-2.2,2.9-3.3,4.4c0.4-0.1,0.8-0.2,1.2-0.4
						c3.8-1.1,6.8-4.8,6.7-8.8c0-3.6-0.5-7.1-1.1-10.6c-1.1-8-15.1-8-16.2,0c-0.5,3.6-1,7-1.1,10.6c-0.1,4.1,2.9,7.7,6.7,8.8
						c0.4,0.1,0.8,0.2,1.2,0.4c-1.1-1.5-2.2-2.9-3.3-4.4c0.1,0.8,0.1,1.6,0.2,2.4C407.4,1482.8,415.5,1482.8,415.9,1477.2
						L415.9,1477.2z"/>
				</g>
				<g>
					<path class="st0" d="M637.8,1491.6c3.5,0,3.5-5.4,0-5.4C634.3,1486.2,634.3,1491.6,637.8,1491.6L637.8,1491.6z"/>
				</g>
				<g>
					<path class="st0" d="M754.9,1527c8.9,0,8.9-13.8,0-13.8C746,1513.2,746,1527,754.9,1527L754.9,1527z"/>
				</g>
				<g>
					<path class="st0" d="M1152.9,630.1c4.8,0,4.8-7.4,0-7.4C1148.2,622.7,1148.2,630.1,1152.9,630.1L1152.9,630.1z"/>
				</g>
				<g>
					<path class="st0" d="M1312.9,403c3.7,0,3.7-5.8,0-5.8C1309.2,397.2,1309.2,403,1312.9,403L1312.9,403z"/>
				</g>
				<g>
					<path class="st0" d="M1496.3,326.7c6,0,6-9.3,0-9.3C1490.3,317.4,1490.3,326.7,1496.3,326.7L1496.3,326.7z"/>
				</g>
				<g>
					<path class="st0" d="M1789,154.3c0.1,0,0.1-0.1,0-0.1C1789,154.2,1789,154.3,1789,154.3L1789,154.3z"/>
				</g>
				<g>
					<path class="st0" d="M1574.4,613.8c8.9,0,8.9-13.8,0-13.8C1565.5,600,1565.5,613.8,1574.4,613.8L1574.4,613.8z"/>
				</g>
				<g>
					<path class="st0" d="M1878.8,901.4c7.3,0,7.3-11.3,0-11.3C1871.5,890.1,1871.5,901.4,1878.8,901.4L1878.8,901.4z"/>
				</g>
				<g>
					<path class="st0" d="M1882.7,1089.7c3.6,0,3.6-5.5,0-5.5C1879.1,1084.2,1879.1,1089.7,1882.7,1089.7L1882.7,1089.7z"/>
				</g>
				<g>
					<path class="st0" d="M1570.5,1276.6c3.1,0,3.1-4.8,0-4.8C1567.4,1271.9,1567.4,1276.6,1570.5,1276.6L1570.5,1276.6z"/>
				</g>
				<g>
					<path class="st0" d="M1679.8,1171.8c8.7,0,8.8-13.6,0-13.6C1671,1158.2,1671,1171.8,1679.8,1171.8L1679.8,1171.8z"/>
				</g>
				<g>
					<path class="st0" d="M1609.5,1016.6c9.9,0,9.9-15.4,0-15.4C1599.6,1001.2,1599.6,1016.6,1609.5,1016.6L1609.5,1016.6z"/>
				</g>
				<g>
					<path class="st0" d="M1257.2,929.8c-1.9-3.7-6.1-6.4-10.1-7.4c-1.6-0.4-3.2-0.6-4.8-0.8c-3.7-0.5-6.8,0.5-10.1,2.1
						c-8.4,4-8.4,18.3,0,22.2c4,1.9,7.4,2.6,11.9,1.9c2.5-0.4,4.4-1.1,6.8-2.2C1257,942.8,1260.3,935.9,1257.2,929.8L1257.2,929.8z"
						/>
				</g>
				<g>
					<path class="st0" d="M1092.2,801.9c2.8-5.1,3.4-10.7,3.8-16.4c0.5-6,0.2-11.5-3.3-16.6c-5-7.4-14.9-7.4-20,0
						c-3.5,5.2-3.8,10.6-3.3,16.6c0.4,5.7,1,11.3,3.8,16.4C1077.1,809.1,1088.3,809.1,1092.2,801.9L1092.2,801.9z"/>
				</g>
				<g>
					<path class="st0" d="M1301.2,493.5c4.8,0,4.8-7.4,0-7.4C1296.5,486.2,1296.5,493.5,1301.2,493.5L1301.2,493.5z"/>
				</g>
				<g>
					<path class="st0" d="M290.5,694.1c6.8,0,6.8-10.5,0-10.5C283.7,683.6,283.7,694.1,290.5,694.1L290.5,694.1z"/>
				</g>
				<g>
					<path class="st0" d="M1789,640.3c7.8,0,7.8-12.2,0-12.2C1781.2,628.2,1781.2,640.3,1789,640.3L1789,640.3z"/>
				</g>
				<g>
					<path class="st0" d="M1843.7,621.7c3.9,0,3.9-6.1,0-6.1C1839.8,615.6,1839.7,621.7,1843.7,621.7L1843.7,621.7z"/>
				</g>
				<g>
					<path class="st0" d="M1832,412.8c-2.1,0-4.2-0.1-6.3,0c-2.4,0.1-4.7,0.7-7,1.1c-5.7,1-5.7,10.5,0,11.5c2.3,0.4,4.6,1,7,1.1
						c2.1,0.1,4.2,0,6.3,0c3.7,0,6.8-3.1,6.8-6.8C1838.8,415.9,1835.7,412.8,1832,412.8L1832,412.8z"/>
				</g>
				<g>
					<path class="st0" d="M1921.7,570.3c8.2,0,8.2-12.7,0-12.7C1913.5,557.6,1913.5,570.3,1921.7,570.3L1921.7,570.3z"/>
				</g>
				<g>
					<path class="st0" d="M2011.7,722.5c3.9,2.6,7.8,5.2,11.7,7.8c3.2,2.1,8.3,0.7,10-2.6c1.9-3.7,0.8-7.8-2.6-10
						c-3.9-2.6-7.8-5.2-11.7-7.8c-3.2-2.1-8.3-0.7-10,2.6C2007.1,716.2,2008.3,720.2,2011.7,722.5L2011.7,722.5z"/>
				</g>
				<g>
					<path class="st0" d="M2155.9,858.8c7.8,0,7.8-12.1,0-12.1C2148.1,846.7,2148.1,858.8,2155.9,858.8L2155.9,858.8z"/>
				</g>
				<g>
					<path class="st0" d="M2034.9,1101.7c8.9,0,9-13.9,0-13.9C2025.9,1087.8,2025.9,1101.7,2034.9,1101.7L2034.9,1101.7z"/>
				</g>
				<g>
					<path class="st0" d="M1418.3,1194.2c7.5,0,7.5-11.6,0-11.6C1410.8,1182.6,1410.8,1194.2,1418.3,1194.2L1418.3,1194.2z"/>
				</g>
				<g>
					<path class="st0" d="M1254.4,939.6c1.2,0,1.2-1.8,0-1.8C1253.2,937.7,1253.2,939.6,1254.4,939.6L1254.4,939.6z"/>
				</g>
				<g>
					<path class="st0" d="M1258.3,705.8c6.8,0,6.8-10.5,0-10.5C1251.5,695.3,1251.5,705.8,1258.3,705.8L1258.3,705.8z"/>
				</g>
				<g>
					<path class="st0" d="M1071,559.2c8.9,0,8.9-13.8,0-13.8C1062.1,545.4,1062.1,559.2,1071,559.2L1071,559.2z"/>
				</g>
				<g>
					<path class="st0" d="M1032,1208.1c5.2,0,5.3-8.1,0-8.1C1026.7,1199.9,1026.7,1208.1,1032,1208.1L1032,1208.1z"/>
				</g>
				<g>
					<path class="st0" d="M1215.4,1318.6c6.9,0,6.9-10.8,0-10.8C1208.5,1307.9,1208.4,1318.6,1215.4,1318.6L1215.4,1318.6z"/>
				</g>
				<g>
					<path class="st0" d="M1086.6,1430.8c0.6,0,0.6-0.9,0-0.9C1086,1429.9,1086,1430.8,1086.6,1430.8L1086.6,1430.8z"/>
				</g>
				<g>
					<path class="st0" d="M1125.6,1540.5c6.2,0,6.2-9.6,0-9.6C1119.5,1530.9,1119.5,1540.5,1125.6,1540.5L1125.6,1540.5z"/>
				</g>
				<g>
					<path class="st0" d="M1238.8,1538.6c3.7,0,3.7-5.8,0-5.8C1235.1,1532.8,1235.1,1538.6,1238.8,1538.6L1238.8,1538.6z"/>
				</g>
				<g>
					<path class="st0" d="M1285.6,1467.9c8.1,0,8.1-12.6,0-12.6C1277.5,1455.3,1277.5,1467.9,1285.6,1467.9L1285.6,1467.9z"/>
				</g>
				<g>
					<path class="st0" d="M1188.1,1420.4c7.3,0,7.3-11.3,0-11.3C1180.8,1409.1,1180.8,1420.4,1188.1,1420.4L1188.1,1420.4z"/>
				</g>
				<g>
					<path class="st0" d="M1418.3,1386.2c8.5,0,8.5-13.1,0-13.1C1409.8,1373,1409.8,1386.2,1418.3,1386.2L1418.3,1386.2z"/>
				</g>
				<g>
					<path class="st0" d="M1422.2,1557c7.3,0,7.4-11.4,0-11.4C1414.9,1545.6,1414.9,1557,1422.2,1557L1422.2,1557z"/>
				</g>
				<g>
					<path class="st0" d="M1184.2,1644.1c8.9,0,8.9-13.8,0-13.8C1175.3,1630.3,1175.3,1644.1,1184.2,1644.1L1184.2,1644.1z"/>
				</g>
				<g>
					<path class="st0" d="M1110,1712c5.9,0,5.9-9.1,0-9.1C1104.1,1702.9,1104.1,1712,1110,1712L1110,1712z"/>
				</g>
				<g>
					<path class="st0" d="M844.6,1256.9c7.8,0,7.8-12.1,0-12.1C836.9,1244.8,836.9,1256.9,844.6,1256.9L844.6,1256.9z"/>
				</g>
				<g>
					<path class="st0" d="M856.3,1112.8c3.1,0,3.2-4.9,0-4.9C853.2,1107.9,853.2,1112.8,856.3,1112.8L856.3,1112.8z"/>
				</g>
				<g>
					<path class="st0" d="M1090.5,1057.7c7.5,0,7.6-11.7,0-11.7C1082.9,1045.9,1082.9,1057.7,1090.5,1057.7L1090.5,1057.7z"/>
				</g>
				<g>
					<path class="st0" d="M1332.4,1054.8c8.9,0,8.9-13.8,0-13.8C1323.6,1041,1323.6,1054.8,1332.4,1054.8L1332.4,1054.8z"/>
				</g>
				<g>
					<path class="st0" d="M885.1,790.3c-0.1-3.9-0.1-7.8-0.2-11.7c-0.1-6.6-10.1-6.6-10.2,0c-0.1,3.9-0.1,7.8-0.2,11.7
						C874.3,797.2,885.2,797.2,885.1,790.3L885.1,790.3z"/>
				</g>
				<g>
					<path class="st0" d="M899.3,599.5c0.5,0,0.5-0.8,0-0.8C898.8,598.7,898.8,599.5,899.3,599.5L899.3,599.5z"/>
				</g>
				<g>
					<path class="st0" d="M911,453.9c4,0,4-6.2,0-6.2C907,447.7,907,453.9,911,453.9L911,453.9z"/>
				</g>
				<g>
					<path class="st0" d="M1176.3,410.9c8.9,0,8.9-13.8,0-13.8C1167.5,397.1,1167.5,410.9,1176.3,410.9L1176.3,410.9z"/>
				</g>
				<g>
					<path class="st0" d="M1492.4,441.5c8,0,8.1-12.5,0-12.5C1484.4,429,1484.4,441.5,1492.4,441.5L1492.4,441.5z"/>
				</g>
				<g>
					<path class="st0" d="M1785.1,242.8c8.5,0,8.5-13.1,0-13.1C1776.7,229.6,1776.7,242.8,1785.1,242.8L1785.1,242.8z"/>
				</g>
				<g>
					<path class="st0" d="M1769.5,129.4c8.2,0,8.3-12.8,0-12.8C1761.3,116.6,1761.3,129.4,1769.5,129.4L1769.5,129.4z"/>
				</g>
			</g>
		</g>
	</g>
</g>
<g id="Object">
	<g>
		<g>
			<path class="st35" d="M1752.8,693.5l-4.2-4c-7.1-6.8-18.4-6.5-25.1,0.6c-21.6,22.8-64.1,68.1-62.7,69.6l21.1,27.8l70.9-68.4
				C1760.2,712.1,1760.1,700.4,1752.8,693.5z"/>
			<path class="st36" d="M1730,758.9l-29.1-31.7l-254.7,287.6l33.8,53.7l250.2-280.1C1737.7,780,1737.6,767.2,1730,758.9z"/>
			<path class="st35" d="M1733.2,606.9l-4.2-4c-7.1-6.8-18.4-6.5-25.1,0.6c-21.6,22.8-64.1,68.1-62.7,69.6l21.1,27.8l70.9-68.4
				C1740.5,625.5,1740.5,613.8,1733.2,606.9z"/>
			<path class="st37" d="M1718,692.4l-49.4-56.2c-13.7-15.6-38.1-15.2-51.3,0.8l-383.7,464.7l104.2,102.2l381-467.9
				C1729.2,723.2,1728.9,704.8,1718,692.4z"/>
			<path class="st38" d="M1324.3,1190.7l13.5,13.2l381-467.9c6.9-8.5,9.1-19.5,6.5-29.6L1324.3,1190.7z"/>
			<g>
				<path class="st36" d="M1632.8,649.5c0.8,3.3,43.9,100.7,43.9,100.7l-25,29.9l-38.9-102.7L1632.8,649.5z"/>
				<polygon class="st35" points="1612.8,677.4 1651.7,780.1 1669.5,758.8 1628.1,656.1 				"/>
			</g>
			<g>
				<path class="st36" d="M1599.1,687.9c0.8,3.3,43.9,100.7,43.9,100.7l-25,29.9l-38.9-102.7L1599.1,687.9z"/>
				<polygon class="st35" points="1579.1,715.8 1618,818.5 1635.8,797.2 1594.4,694.5 				"/>
			</g>
			<g>
				<path class="st36" d="M1563.5,727.1c0.8,3.3,43.9,100.7,43.9,100.7l-25,29.9l-38.9-102.7L1563.5,727.1z"/>
				<polygon class="st35" points="1543.5,755.1 1582.4,857.8 1600.2,836.5 1558.8,733.7 				"/>
			</g>
		</g>
		<g>
			<path class="st35" d="M543.6,693.5l4.2-4c7.1-6.8,18.4-6.5,25.1,0.6c21.6,22.8,64.1,68.1,62.7,69.6l-21.1,27.8l-70.9-68.4
				C536.3,712.1,536.3,700.4,543.6,693.5z"/>
			<path class="st36" d="M566.4,758.9l29.1-31.7l254.7,287.6l-33.8,53.7L566.3,788.4C558.7,780,558.8,767.2,566.4,758.9z"/>
			<path class="st35" d="M563.2,606.9l4.2-4c7.1-6.8,18.4-6.5,25.1,0.6c21.6,22.8,64.1,68.1,62.7,69.6l-21.1,27.8l-70.9-68.4
				C555.9,625.5,555.9,613.8,563.2,606.9z"/>
			<path class="st37" d="M578.4,692.4l49.4-56.2c13.7-15.6,38.1-15.2,51.3,0.8l383.7,464.7l-104.2,102.2L577.6,736
				C567.2,723.2,567.6,704.8,578.4,692.4z"/>
			<path class="st38" d="M972.1,1190.7l-13.5,13.2L577.6,736c-6.9-8.5-9.1-19.5-6.5-29.6L972.1,1190.7z"/>
			<g>
				<path class="st36" d="M663.6,649.5c-0.8,3.3-43.9,100.7-43.9,100.7l25,29.9l38.9-102.7L663.6,649.5z"/>
				<polygon class="st35" points="683.6,677.4 644.7,780.1 626.9,758.8 668.3,656.1 				"/>
			</g>
			<g>
				<path class="st36" d="M697.3,687.9c-0.8,3.3-43.9,100.7-43.9,100.7l25,29.9l38.9-102.7L697.3,687.9z"/>
				<polygon class="st35" points="717.4,715.8 678.5,818.5 660.6,797.2 702,694.5 				"/>
			</g>
			<g>
				<path class="st36" d="M732.9,727.1C732,730.4,689,827.9,689,827.9l25,29.9l38.9-102.7L732.9,727.1z"/>
				<polygon class="st35" points="752.9,755.1 714,857.8 696.2,836.5 737.6,733.7 				"/>
			</g>
		</g>
		<g>
			<path class="st39" d="M824.5,1317.7c0,62.7,27,122.4,74.1,163.8l208.6,183.3c25.5,22.4,63.7,22.1,88.9-0.7l201.2-182.7
				c45.4-41.2,71.5-100.1,71.5-161.5V799.4H824.5V1317.7z"/>
			<path class="st40" d="M1179.8,1100.6c-30.5,11.9-67.5,22.6-93.9,3.2c-13.1-9.7-21-25.4-34.9-34c-18.3-11.2-41.8-7.2-62.4-1.4
				c-59.1,16.5-115,44.1-164.1,80.9v168.4c0,62.7,27,122.4,74.1,163.8l208.6,183.3c25.5,22.4,63.7,22.1,88.9-0.7l201.2-182.7
				c45.4-41.2,71.5-100.1,71.5-161.5V969.1C1375,1018.1,1278.5,1062,1179.8,1100.6z"/>
			<path class="st41" d="M1325.1,1369.7c-12.2,9-26.1,18.4-41.2,16.3c-25.3-3.5-34.6-34.9-53.8-51.7c-15.9-14-39-17.3-59.8-13.6
				s-40,13.6-58.6,23.6c-74.7,40.3-146.8,85.4-215.7,134.9c0.9,0.8,1.7,1.6,2.6,2.3l208.6,183.3c25.5,22.4,63.7,22.1,88.9-0.7
				l201.2-182.7c45.4-41.2,71.5-100.1,71.5-161.5v-55.8C1421,1299.3,1373.1,1334.5,1325.1,1369.7z"/>
			<path class="st42" d="M1272.6,1538.5c-24.6,20.1-52.4,41.9-84.1,39.6c-11.1-0.8-21.8-4.6-32.8-6.2c-26.7-4-54,4.9-76.9,19.2
				c-10.6,6.6-20.4,14.3-29.7,22.6l58.2,51.2c25.5,22.4,63.7,22.1,88.9-0.7l201.2-182.7c24.2-22,43-49,55.2-78.7
				C1390.8,1445.6,1330.7,1490.9,1272.6,1538.5z"/>
			<path class="st43" d="M1091,1028.1h54.2h20.4h54.2c24.3-96,129.4-180.8,200.7-228.7H890.4C961.6,847.3,1066.8,932.1,1091,1028.1z
				"/>
			<path class="st44" d="M918.5,1481.5c-47.1-41.4-74.1-101.1-74.1-163.8V799.4h-19.9v518.3c0,62.7,27,122.4,74.1,163.8l208.6,183.3
				c15.3,13.4,35.2,18.7,54,15.9c-12.3-1.8-24.2-7.1-34.1-15.9L918.5,1481.5z"/>
			<path class="st34" d="M789.5,764.4v553.3c0,72.8,31.4,142.1,86,190.1l208.6,183.3c19.2,16.9,43.2,25.3,67.2,25.3
				c24.5,0,49-8.8,68.4-26.4l201.2-182.7c52.7-47.9,83-116.2,83-187.4V764.4H789.5z M1468.9,1320c0,61.4-26.1,120.2-71.5,161.5
				l-201.2,182.7c-25.2,22.8-63.4,23.1-88.9,0.7l-208.6-183.3c-47.1-41.4-74.1-101.1-74.1-163.8V799.4h644.4V1320z"/>
			<polygon class="st43" points="1468.9,799.4 1499.7,764.4 789.5,764.4 824.5,799.4 			"/>
		</g>
		<g>
			<circle class="st45" cx="1150.4" cy="454.1" r="256.2"/>
			<path class="st23" d="M1030.8,462.2c0,0-28.8-14.7-32.6-10.2c-3.8,4.5,3.6,53.6,16.3,78.9c12.7,25.3,32.9,20.2,32.9,20.2
				L1030.8,462.2z"/>
			<path class="st23" d="M1256.9,462.2c0,0,28.8-14.7,32.6-10.2c3.8,4.5-3.6,53.6-16.3,78.9c-12.7,25.3-32.9,20.2-32.9,20.2
				L1256.9,462.2z"/>
			<path class="st23" d="M1030.7,453.4v83.8c0,19.3,6.8,37.9,19.1,52.7l91.9,110v10.4l4.4-5.2l4.4,5.2v-10.4l89.6-107.3
				c13.8-16.5,21.3-37.3,21.3-58.9v-75.5c0-53.1-25.3-103-68.1-134.5l-3.2-2.3c-29.2-21.5-69.3-20.6-97.5,2.2l0,0
				C1053.5,355.3,1030.7,403,1030.7,453.4z"/>
			<ellipse class="st46" cx="1150.4" cy="339" rx="228.9" ry="141"/>
			<path class="st47" d="M1457.3,773c-6.4-18.3-26.4-66.2-70.5-103.6l9-132c0,0-102.3,102.9-177.7,62.1l-46.3-68.7h-8.2h-19.4h-8.2
				l-46.3,68.7c-75.5,40.8-177.7-62.1-177.7-62.1l9,132c-55.7,47.3-72.9,111.2-72.9,111.2s229.1,63.1,252.3,224.5h55.6h0.3h55.6
				C1234.7,843.7,1459.6,775.5,1457.3,773z"/>
			<path class="st48" d="M1280.9,760.2l106.8-103.4l4.2-62.3c-27.8,17.5-111.1,74.7-111.1,74.7V760.2z"/>
			<path class="st48" d="M1030.7,669.3c0,0-92.7-63.7-115.1-77.2l4.1,60.7l111,107.4V669.3z"/>
			<path class="st48" d="M1457.3,773c-6.3-18.1-26-65.3-69.3-102.6c-40.7,38.2-153.8,144.3-188.6,213.2h-41.3h-3.3h-45.3
				c-36.1-71.5-152.2-183-188.9-217.2l0.2,3c-55.7,47.3-72.9,111.2-72.9,111.2s229.1,63.1,252.3,224.5h55.6h0.3h55.6
				C1234.7,843.7,1459.6,775.5,1457.3,773z"/>
			<g>
				<path class="st49" d="M1158.1,883.7h-3.3h-44.4l-11.5,114c0.5,2.4,0.9,4.9,1.2,7.4h55.6h0.3h55.2l-12.3-121.4H1158.1z"/>
			</g>
			<path class="st48" d="M1089.6,619.1l46.3-68.7h8.2h19.4h8.2l46.3,68.7c70.3,38,163.8-48.6,176.3-60.7l1.4-21
				c0,0-102.3,102.9-177.7,62.1l-46.3-68.7h-8.2h-19.4h-8.2l-46.3,68.7c-75.5,40.8-177.7-62.1-177.7-62.1l1.4,21
				C925.8,570.5,1019.3,657.1,1089.6,619.1z"/>
			<polygon class="st50" points="1163.5,530.8 1144.1,530.8 1136,530.8 1135.9,550.4 1144.1,550.4 1163.5,550.4 1171.8,550.4 
				1171.5,530.8 			"/>
		</g>
		<circle class="st16" cx="1152.9" cy="1271.8" r="198.5"/>
		<path class="st51" d="M1169.8,1074.1c41.3,36.4,67.3,89.6,67.3,149c0,109.6-88.9,198.5-198.5,198.5c-5.7,0-11.3-0.3-16.9-0.7
			c35,30.8,80.9,49.5,131.1,49.5c109.6,0,198.5-88.9,198.5-198.5C1351.3,1167.9,1271.5,1082.6,1169.8,1074.1z"/>
		<path class="st47" d="M883.6,1262.7c0,0-40.6,111,59.7,149.8s468.3-108.5,493.6-424.7c0,0-167.7,402.1-488.4,381
			C887.9,1364.7,883.6,1262.7,883.6,1262.7z"/>
		<path class="st48" d="M1203.3,620.8l-32.4-53.9h-15.1h-2h-15.1l-32.4,53.9c-11.3,18.7-17.2,40.2-17.2,62v142.3h64.7h2h64.7V682.9
			C1220.5,661,1214.6,639.6,1203.3,620.8z"/>
		<g>
			<path class="st45" d="M1115.8,634.7c-2.9,0-5.3,2.4-5.3,5.3v167.9c0,2.9,2.4,5.3,5.3,5.3s5.3-2.4,5.3-5.3V640
				C1121.1,637.1,1118.7,634.7,1115.8,634.7z"/>
			<path class="st45" d="M1143.6,634.7c-2.9,0-5.3,2.4-5.3,5.3v167.9c0,2.9,2.4,5.3,5.3,5.3c2.9,0,5.3-2.4,5.3-5.3V640
				C1148.9,637.1,1146.6,634.7,1143.6,634.7z"/>
			<path class="st45" d="M1171.4,634.7c-2.9,0-5.3,2.4-5.3,5.3v167.9c0,2.9,2.4,5.3,5.3,5.3c2.9,0,5.3-2.4,5.3-5.3V640
				C1176.8,637.1,1174.4,634.7,1171.4,634.7z"/>
			<path class="st45" d="M1199.3,634.7c-2.9,0-5.3,2.4-5.3,5.3v167.9c0,2.9,2.4,5.3,5.3,5.3s5.3-2.4,5.3-5.3V640
				C1204.6,637.1,1202.2,634.7,1199.3,634.7z"/>
		</g>
		<g>
			<path class="st52" d="M1112.8,634.7c-2.9,0-5.3,2.4-5.3,5.3v167.9c0,2.9,2.4,5.3,5.3,5.3s5.3-2.4,5.3-5.3V640
				C1118.1,637.1,1115.7,634.7,1112.8,634.7z"/>
			<path class="st52" d="M1140.6,634.7c-2.9,0-5.3,2.4-5.3,5.3v167.9c0,2.9,2.4,5.3,5.3,5.3c2.9,0,5.3-2.4,5.3-5.3V640
				C1145.9,637.1,1143.6,634.7,1140.6,634.7z"/>
			<path class="st52" d="M1168.4,634.7c-2.9,0-5.3,2.4-5.3,5.3v167.9c0,2.9,2.4,5.3,5.3,5.3c2.9,0,5.3-2.4,5.3-5.3V640
				C1173.8,637.1,1171.4,634.7,1168.4,634.7z"/>
			<path class="st52" d="M1196.3,634.7c-2.9,0-5.3,2.4-5.3,5.3v167.9c0,2.9,2.4,5.3,5.3,5.3s5.3-2.4,5.3-5.3V640
				C1201.6,637.1,1199.2,634.7,1196.3,634.7z"/>
		</g>
		
			<ellipse transform="matrix(0.4246 -0.9054 0.9054 0.4246 464.1819 1342.0548)" class="st0" cx="1287.9" cy="305.9" rx="32.3" ry="53.3"/>
	</g>
</g>
</svg>
